CSLSans-MediumItalic.ufo
<glyph name="dollar" format="2">
  <advance width="571"/>
  <unicode hex="0024"/>
  <outline>
    <contour>
      <point x="287" y="96" type="line"/>
      <point x="386" y="102"/>
      <point x="400" y="181" type="qcurve"/>
      <point x="400" y="204" type="line" smooth="yes"/>
      <point x="400" y="229"/>
      <point x="387" y="248" type="qcurve" smooth="yes"/>
      <point x="371" y="272"/>
      <point x="326" y="293" type="qcurve"/>
    </contour>
    <contour>
      <point x="307" y="601" type="line"/>
      <point x="220" y="593"/>
      <point x="207" y="533" type="qcurve"/>
      <point x="206" y="522"/>
      <point x="206" y="510" type="qcurve" smooth="yes"/>
      <point x="206" y="462"/>
      <point x="272" y="429" type="qcurve"/>
    </contour>
    <contour>
      <point x="187" y="7" type="line"/>
      <point x="85" y="29"/>
      <point x="18" y="113" type="qcurve"/>
      <point x="93" y="184" type="line"/>
      <point x="142" y="124"/>
      <point x="207" y="105" type="qcurve"/>
      <point x="251" y="323" type="line"/>
      <point x="96" y="384"/>
      <point x="96" y="503" type="qcurve" smooth="yes"/>
      <point x="96" y="589"/>
      <point x="157" y="644" type="qcurve" smooth="yes"/>
      <point x="216" y="697"/>
      <point x="327" y="699" type="qcurve"/>
      <point x="343" y="780" type="line"/>
      <point x="424" y="780" type="line"/>
      <point x="406" y="692" type="line"/>
      <point x="502" y="671"/>
      <point x="562" y="595" type="qcurve"/>
      <point x="485" y="527" type="line"/>
      <point x="447" y="579"/>
      <point x="387" y="595" type="qcurve"/>
      <point x="347" y="397" type="line"/>
      <point x="352" y="395" type="line" smooth="yes"/>
      <point x="448" y="356"/>
      <point x="485" y="301" type="qcurve" smooth="yes"/>
      <point x="510" y="264"/>
      <point x="510" y="214" type="qcurve" smooth="yes"/>
      <point x="510" y="115"/>
      <point x="446" y="57" type="qcurve" smooth="yes"/>
      <point x="382" y="0"/>
      <point x="267" y="-1" type="qcurve"/>
      <point x="251" y="-82" type="line"/>
      <point x="169" y="-82" type="line"/>
    </contour>
  </outline>
</glyph>
<glyph name="period" format="2">
  <advance width="300"/>
  <unicode hex="002E"/>
  <outline>
    <contour>
      <point x="90" y="-12" type="qcurve" smooth="yes"/>
      <point x="58" y="-12"/>
      <point x="28" y="16"/>
      <point x="28" y="37" type="qcurve" smooth="yes"/>
      <point x="28" y="139"/>
      <point x="112" y="139" type="qcurve" smooth="yes"/>
      <point x="144" y="139"/>
      <point x="174" y="111"/>
      <point x="174" y="90" type="qcurve" smooth="yes"/>
      <point x="174" y="72"/>
      <point x="169" y="51" type="qcurve"/>
      <point x="158" y="-12"/>
    </contour>
  </outline>
</glyph>
<glyph name="Q" format="2">
  <advance width="687"/>
  <unicode hex="0051"/>
  <outline>
    <contour>
      <point x="430" y="121" type="qcurve"/>
      <point x="326" y="241" type="line"/>
      <point x="436" y="241" type="line"/>
      <point x="485" y="184" type="line"/>
      <point x="509" y="224"/>
      <point x="523" y="290" type="qcurve" smooth="yes"/>
      <point x="545" y="396" type="line"/>
      <point x="551" y="433"/>
      <point x="551" y="458" type="qcurve"/>
      <point x="547" y="613"/>
      <point x="404" y="613" type="qcurve" smooth="yes"/>
      <point x="238" y="613"/>
      <point x="192" y="406" type="qcurve"/>
      <point x="171" y="302" type="line"/>
      <point x="165" y="266"/>
      <point x="165" y="240" type="qcurve" smooth="yes"/>
      <point x="165" y="167"/>
      <point x="241" y="85"/>
      <point x="313" y="85" type="qcurve" smooth="yes"/>
      <point x="382" y="85"/>
    </contour>
    <contour>
      <point x="551" y="108" type="qcurve"/>
      <point x="644" y="0" type="line"/>
      <point x="534" y="0" type="line"/>
      <point x="490" y="50" type="line"/>
      <point x="471" y="36"/>
      <point x="450" y="25" type="qcurve"/>
      <point x="384" y="-12"/>
      <point x="303" y="-12" type="qcurve" smooth="yes"/>
      <point x="201" y="-12"/>
      <point x="129" y="57" type="qcurve"/>
      <point x="56" y="131"/>
      <point x="56" y="265" type="qcurve" smooth="yes"/>
      <point x="56" y="441"/>
      <point x="153" y="576" type="qcurve"/>
      <point x="200" y="638"/>
      <point x="331" y="710"/>
      <point x="412" y="710" type="qcurve" smooth="yes"/>
      <point x="521" y="710"/>
      <point x="588" y="642" type="qcurve" smooth="yes"/>
      <point x="660" y="568"/>
      <point x="660" y="433" type="qcurve" smooth="yes"/>
      <point x="660" y="258"/>
      <point x="563" y="123" type="qcurve" smooth="yes"/>
      <point x="557" y="115"/>
    </contour>
  </outline>
</glyph>
<glyph name="S" format="2">
  <advance width="597"/>
  <unicode hex="0053"/>
  <outline>
    <contour>
      <point x="275" y="-12" type="qcurve" smooth="yes"/>
      <point x="114" y="-12"/>
      <point x="20" y="106" type="qcurve"/>
      <point x="98" y="179" type="line"/>
      <point x="172" y="88"/>
      <point x="281" y="88" type="qcurve" smooth="yes"/>
      <point x="399" y="88"/>
      <point x="414" y="176" type="qcurve"/>
      <point x="414" y="199" type="line" smooth="yes"/>
      <point x="414" y="225"/>
      <point x="401" y="245" type="qcurve" smooth="yes"/>
      <point x="382" y="274"/>
      <point x="325" y="297" type="qcurve" smooth="yes"/>
      <point x="267" y="320" type="line" smooth="yes"/>
      <point x="101" y="383"/>
      <point x="101" y="508" type="qcurve" smooth="yes"/>
      <point x="101" y="597"/>
      <point x="227" y="710"/>
      <point x="345" y="710" type="qcurve" smooth="yes"/>
      <point x="497" y="710"/>
      <point x="581" y="603" type="qcurve"/>
      <point x="502" y="533" type="line"/>
      <point x="445" y="610"/>
      <point x="339" y="610" type="qcurve"/>
      <point x="230" y="608"/>
      <point x="215" y="539" type="qcurve"/>
      <point x="214" y="527"/>
      <point x="214" y="515" type="qcurve" smooth="yes"/>
      <point x="214" y="457"/>
      <point x="306" y="421" type="qcurve"/>
      <point x="365" y="396" type="line" smooth="yes"/>
      <point x="464" y="356"/>
      <point x="502" y="300" type="qcurve" smooth="yes"/>
      <point x="528" y="261"/>
      <point x="528" y="210" type="qcurve" smooth="yes"/>
      <point x="528" y="108"/>
      <point x="395" y="-12"/>
    </contour>
  </outline>
</glyph>
<glyph name="underscore" format="2">
  <advance width="548"/>
  <unicode hex="005F"/>
  <outline>
    <contour>
      <point x="-57" y="-173" type="line"/>
      <point x="-39" y="-85" type="line"/>
      <point x="450" y="-85" type="line"/>
      <point x="432" y="-173" type="line"/>
    </contour>
  </outline>
</glyph>
<glyph name="m" format="2">
  <advance width="859"/>
  <unicode hex="006D"/>
  <outline>
    <contour>
      <point x="711" y="0" type="line"/>
      <point x="638" y="1"/>
      <point x="638" y="65" type="qcurve" smooth="yes"/>
      <point x="638" y="75"/>
      <point x="686" y="316" type="qcurve"/>
      <point x="693" y="347"/>
      <point x="693" y="371" type="qcurve" smooth="yes"/>
      <point x="693" y="442"/>
      <point x="629" y="442" type="qcurve" smooth="yes"/>
      <point x="575" y="442"/>
      <point x="534" y="387" type="qcurve" smooth="yes"/>
      <point x="497" y="338"/>
      <point x="486" y="280" type="qcurve" smooth="yes"/>
      <point x="430" y="0" type="line"/>
      <point x="326" y="0" type="line"/>
      <point x="389" y="315" type="line" smooth="yes"/>
      <point x="396" y="347"/>
      <point x="396" y="372" type="qcurve" smooth="yes"/>
      <point x="396" y="442"/>
      <point x="335" y="442" type="qcurve" smooth="yes"/>
      <point x="283" y="442"/>
      <point x="248" y="398" type="qcurve"/>
      <point x="200" y="343"/>
      <point x="187" y="280" type="qcurve" smooth="yes"/>
      <point x="131" y="0" type="line"/>
      <point x="27" y="0" type="line"/>
      <point x="131" y="520" type="line"/>
      <point x="235" y="520" type="line"/>
      <point x="213" y="409" type="line"/>
      <point x="218" y="409" type="line"/>
      <point x="247" y="469"/>
      <point x="322" y="532"/>
      <point x="380" y="532" type="qcurve" smooth="yes"/>
      <point x="437" y="532"/>
      <point x="497" y="467"/>
      <point x="501" y="409" type="qcurve"/>
      <point x="506" y="409" type="line"/>
      <point x="533" y="469"/>
      <point x="613" y="532"/>
      <point x="673" y="532" type="qcurve" smooth="yes"/>
      <point x="736" y="532"/>
      <point x="799" y="459"/>
      <point x="799" y="394" type="qcurve" smooth="yes"/>
      <point x="799" y="358"/>
      <point x="790" y="316" type="qcurve" smooth="yes"/>
      <point x="744" y="87" type="line"/>
      <point x="807" y="87" type="line"/>
      <point x="790" y="0" type="line"/>
    </contour>
  </outline>
</glyph>
<glyph name="p" format="2">
  <advance width="577"/>
  <unicode hex="0070"/>
  <outline>
    <contour>
      <point x="267" y="77" type="qcurve" smooth="yes"/>
      <point x="381" y="77"/>
      <point x="408" y="217" type="qcurve" smooth="yes"/>
      <point x="423" y="290" type="line"/>
      <point x="428" y="319"/>
      <point x="428" y="344" type="qcurve" smooth="yes"/>
      <point x="428" y="388"/>
      <point x="386" y="443"/>
      <point x="343" y="443" type="qcurve" smooth="yes"/>
      <point x="287" y="443"/>
      <point x="244" y="393" type="qcurve"/>
      <point x="201" y="347"/>
      <point x="187" y="278" type="qcurve" smooth="yes"/>
      <point x="168" y="183" type="line"/>
      <point x="166" y="171"/>
      <point x="166" y="160" type="qcurve" smooth="yes"/>
      <point x="166" y="129"/>
      <point x="184" y="107" type="qcurve" smooth="yes"/>
      <point x="209" y="77"/>
    </contour>
    <contour>
      <point x="-13" y="-200" type="line"/>
      <point x="131" y="520" type="line"/>
      <point x="235" y="520" type="line"/>
      <point x="212" y="404" type="line"/>
      <point x="216" y="404" type="line"/>
      <point x="247" y="468"/>
      <point x="325" y="532"/>
      <point x="385" y="532" type="qcurve" smooth="yes"/>
      <point x="457" y="532"/>
      <point x="535" y="428"/>
      <point x="535" y="341" type="qcurve" smooth="yes"/>
      <point x="535" y="205"/>
      <point x="469" y="96" type="qcurve"/>
      <point x="397" y="-12"/>
      <point x="286" y="-12" type="qcurve" smooth="yes"/>
      <point x="235" y="-12"/>
      <point x="162" y="39"/>
      <point x="153" y="87" type="qcurve"/>
      <point x="148" y="87" type="line"/>
      <point x="91" y="-200" type="line"/>
    </contour>
  </outline>
</glyph>
<glyph name="braceleft" format="2">
  <advance width="343"/>
  <unicode hex="007B"/>
  <outline>
    <contour>
      <point x="125" y="-138" type="line"/>
      <point x="52" y="-134"/>
      <point x="52" y="-70" type="qcurve" smooth="yes"/>
      <point x="52" y="-59"/>
      <point x="55" y="-44" type="qcurve" smooth="yes"/>
      <point x="97" y="168" type="line" smooth="yes"/>
      <point x="100" y="183"/>
      <point x="100" y="196" type="qcurve"/>
      <point x="97" y="265"/>
      <point x="25" y="265" type="qcurve"/>
      <point x="44" y="359" type="line"/>
      <point x="92" y="359"/>
      <point x="144" y="403"/>
      <point x="153" y="447" type="qcurve" smooth="yes"/>
      <point x="198" y="670" type="line"/>
      <point x="218" y="760"/>
      <point x="294" y="760" type="qcurve" smooth="yes"/>
      <point x="394" y="760" type="line"/>
      <point x="379" y="679" type="line"/>
      <point x="294" y="679" type="line"/>
      <point x="247" y="442" type="line" smooth="yes"/>
      <point x="238" y="395"/>
      <point x="184" y="323"/>
      <point x="125" y="316" type="qcurve"/>
      <point x="123" y="306" type="line"/>
      <point x="199" y="288"/>
      <point x="199" y="214" type="qcurve" smooth="yes"/>
      <point x="199" y="204"/>
      <point x="147" y="-57" type="qcurve"/>
      <point x="232" y="-57" type="line"/>
      <point x="215" y="-138" type="line"/>
    </contour>
  </outline>
</glyph>
<glyph name="exclamdown" format="2">
  <advance width="290"/>
  <unicode hex="00A1"/>
  <outline>
    <contour>
      <point x="0" y="-178" type="line"/>
      <point x="40" y="22" type="line"/>
      <point x="132" y="320" type="line"/>
      <point x="180" y="320" type="line"/>
      <point x="152" y="22" type="line"/>
      <point x="112" y="-178" type="line"/>
    </contour>
    <contour>
      <point x="169" y="381" type="qcurve" smooth="yes"/>
      <point x="137" y="381"/>
      <point x="107" y="409"/>
      <point x="107" y="430" type="qcurve" smooth="yes"/>
      <point x="107" y="532"/>
      <point x="191" y="532" type="qcurve" smooth="yes"/>
      <point x="223" y="532"/>
      <point x="253" y="504"/>
      <point x="253" y="483" type="qcurve" smooth="yes"/>
      <point x="253" y="465"/>
      <point x="248" y="444" type="qcurve"/>
      <point x="237" y="381"/>
    </contour>
  </outline>
</glyph>
<glyph name="registered" format="2">
  <advance width="462"/>
  <unicode hex="00AE"/>
  <outline>
    <contour>
      <point x="289" y="509" type="line" smooth="yes"/>
      <point x="323" y="509"/>
      <point x="323" y="552" type="qcurve" smooth="yes"/>
      <point x="323" y="570"/>
      <point x="302" y="570" type="qcurve" smooth="yes"/>
      <point x="265" y="570" type="line"/>
      <point x="253" y="509" type="line"/>
    </contour>
    <contour>
      <point x="299" y="400" type="line"/>
      <point x="274" y="473" type="line"/>
      <point x="246" y="473" type="line"/>
      <point x="231" y="400" type="line"/>
      <point x="183" y="400" type="line"/>
      <point x="225" y="609" type="line"/>
      <point x="310" y="609" type="line" smooth="yes"/>
      <point x="343" y="609"/>
      <point x="374" y="575"/>
      <point x="374" y="550" type="qcurve" smooth="yes"/>
      <point x="374" y="526"/>
      <point x="346" y="487"/>
      <point x="321" y="480" type="qcurve"/>
      <point x="350" y="400" type="line"/>
    </contour>
    <contour>
      <point x="261" y="338" type="qcurve" smooth="yes"/>
      <point x="323" y="338"/>
      <point x="412" y="414"/>
      <point x="426" y="479" type="qcurve"/>
      <point x="433" y="523"/>
      <point x="433" y="536" type="qcurve" smooth="yes"/>
      <point x="433" y="597"/>
      <point x="357" y="669"/>
      <point x="298" y="669" type="qcurve" smooth="yes"/>
      <point x="236" y="669"/>
      <point x="147" y="593"/>
      <point x="133" y="528" type="qcurve" smooth="yes"/>
      <point x="126" y="499"/>
      <point x="126" y="471" type="qcurve" smooth="yes"/>
      <point x="126" y="409"/>
      <point x="202" y="338"/>
    </contour>
    <contour>
      <point x="256" y="297" type="qcurve" smooth="yes"/>
      <point x="180" y="297"/>
      <point x="80" y="396"/>
      <point x="80" y="472" type="qcurve" smooth="yes"/>
      <point x="80" y="576"/>
      <point x="209" y="710"/>
      <point x="303" y="710" type="qcurve" smooth="yes"/>
      <point x="380" y="710"/>
      <point x="478" y="609"/>
      <point x="478" y="535" type="qcurve" smooth="yes"/>
      <point x="478" y="432"/>
      <point x="351" y="297"/>
    </contour>
  </outline>
</glyph>
<glyph name="acute" format="2">
  <advance width="589"/>
  <unicode hex="00B4"/>
  <outline>
    <contour>
      <point x="255" y="616" type="line"/>
      <point x="365" y="795" type="line"/>
      <point x="452" y="749" type="line"/>
      <point x="318" y="582" type="line"/>
    </contour>
  </outline>
</glyph>
<glyph name="periodcentered" format="2">
  <advance width="332"/>
  <unicode hex="00B7"/>
  <outline>
    <contour>
      <point x="158" y="229" type="qcurve" smooth="yes"/>
      <point x="126" y="229"/>
      <point x="96" y="257"/>
      <point x="96" y="278" type="qcurve" smooth="yes"/>
      <point x="96" y="380"/>
      <point x="180" y="380" type="qcurve" smooth="yes"/>
      <point x="212" y="380"/>
      <point x="242" y="352"/>
      <point x="242" y="331" type="qcurve" smooth="yes"/>
      <point x="242" y="313"/>
      <point x="237" y="292" type="qcurve"/>
      <point x="226" y="229"/>
    </contour>
  </outline>
</glyph>
<glyph name="cedilla" format="2">
  <advance width="590"/>
  <unicode hex="00B8"/>
  <outline>
    <contour>
      <point x="274" y="-209" type="qcurve" smooth="yes"/>
      <point x="235" y="-209"/>
      <point x="181" y="-186"/>
      <point x="169" y="-168" type="qcurve"/>
      <point x="214" y="-123" type="line"/>
      <point x="221" y="-132"/>
      <point x="251" y="-149"/>
      <point x="273" y="-149" type="qcurve"/>
      <point x="321" y="-145"/>
      <point x="321" y="-115" type="qcurve" smooth="yes"/>
      <point x="321" y="-82"/>
      <point x="261" y="-77" type="qcurve" smooth="yes"/>
      <point x="237" y="-75" type="line"/>
      <point x="272" y="24" type="line"/>
      <point x="329" y="24" type="line"/>
      <point x="299" y="-59" type="line"/>
      <point x="301" y="-62" type="line"/>
      <point x="316" y="-57"/>
      <point x="338" y="-57" type="qcurve" smooth="yes"/>
      <point x="363" y="-57"/>
      <point x="398" y="-84"/>
      <point x="398" y="-113" type="qcurve" smooth="yes"/>
      <point x="398" y="-159"/>
      <point x="328" y="-209"/>
    </contour>
  </outline>
</glyph>
<glyph name="ordmasculine" format="2">
  <advance width="405"/>
  <unicode hex="00BA"/>
  <outline>
    <contour>
      <point x="236" y="403" type="qcurve" smooth="yes"/>
      <point x="272" y="403"/>
      <point x="320" y="454"/>
      <point x="328" y="497" type="qcurve" smooth="yes"/>
      <point x="340" y="556" type="line" smooth="yes"/>
      <point x="343" y="572"/>
      <point x="343" y="582" type="qcurve"/>
      <point x="340" y="649"/>
      <point x="275" y="649" type="qcurve" smooth="yes"/>
      <point x="239" y="649"/>
      <point x="191" y="598"/>
      <point x="183" y="555" type="qcurve" smooth="yes"/>
      <point x="171" y="496" type="line" smooth="yes"/>
      <point x="168" y="481"/>
      <point x="168" y="470" type="qcurve"/>
      <point x="172" y="403"/>
    </contour>
    <contour>
      <point x="227" y="342" type="qcurve" smooth="yes"/>
      <point x="164" y="342"/>
      <point x="90" y="420"/>
      <point x="90" y="486" type="qcurve" smooth="yes"/>
      <point x="90" y="572"/>
      <point x="139" y="642" type="qcurve"/>
      <point x="190" y="710"/>
      <point x="283" y="710" type="qcurve" smooth="yes"/>
      <point x="346" y="710"/>
      <point x="421" y="632"/>
      <point x="421" y="566" type="qcurve" smooth="yes"/>
      <point x="421" y="478"/>
      <point x="372" y="411" type="qcurve"/>
      <point x="318" y="342"/>
    </contour>
  </outline>
</glyph>
<glyph name="onequarter" format="2">
  <advance width="820"/>
  <unicode hex="00BC"/>
  <outline>
    <contour>
      <point x="645" y="282" type="line"/>
      <point x="640" y="282" type="line"/>
      <point x="504" y="129" type="line"/>
      <point x="614" y="129" type="line"/>
    </contour>
    <contour>
      <point x="589" y="0" type="line"/>
      <point x="603" y="72" type="line"/>
      <point x="426" y="72" type="line"/>
      <point x="439" y="137" type="line"/>
      <point x="645" y="369" type="line"/>
      <point x="735" y="369" type="line"/>
      <point x="687" y="129" type="line"/>
      <point x="736" y="129" type="line"/>
      <point x="724" y="72" type="line"/>
      <point x="676" y="72" type="line"/>
      <point x="662" y="0" type="line"/>
    </contour>
    <contour>
      <point x="51" y="0" type="line"/>
      <point x="681" y="698" type="line"/>
      <point x="771" y="698" type="line"/>
      <point x="142" y="0" type="line"/>
    </contour>
    <contour>
      <point x="309" y="698" type="line"/>
      <point x="235" y="329" type="line"/>
      <point x="161" y="329" type="line"/>
      <point x="220" y="627" type="line"/>
      <point x="131" y="581" type="line"/>
      <point x="146" y="656" type="line"/>
      <point x="230" y="698" type="line"/>
    </contour>
  </outline>
</glyph>
<glyph name="Atilde" format="2">
  <advance width="638"/>
  <unicode hex="00C3"/>
  <outline>
    <contour>
      <point x="391" y="598" type="line"/>
      <point x="384" y="598" type="line"/>
      <point x="228" y="283" type="line"/>
      <point x="424" y="283" type="line"/>
    </contour>
    <contour>
      <point x="455" y="0" type="line"/>
      <point x="433" y="189" type="line"/>
      <point x="183" y="189" type="line"/>
      <point x="86" y="0" type="line"/>
      <point x="-30" y="0" type="line"/>
      <point x="337" y="698" type="line"/>
      <point x="477" y="698" type="line"/>
      <point x="565" y="0" type="line"/>
    </contour>
    <contour>
      <point x="495" y="774" type="qcurve" smooth="yes"/>
      <point x="474" y="774"/>
      <point x="443" y="786"/>
      <point x="429" y="793" type="qcurve" smooth="yes"/>
      <point x="419" y="798" type="line"/>
      <point x="380" y="821"/>
      <point x="351" y="821" type="qcurve" smooth="yes"/>
      <point x="335" y="821"/>
      <point x="309" y="808"/>
      <point x="292" y="795" type="qcurve"/>
      <point x="258" y="847" type="line"/>
      <point x="301" y="904"/>
      <point x="364" y="904" type="qcurve" smooth="yes"/>
      <point x="387" y="904"/>
      <point x="422" y="890"/>
      <point x="440" y="880" type="qcurve" smooth="yes"/>
      <point x="480" y="857"/>
      <point x="508" y="857" type="qcurve" smooth="yes"/>
      <point x="525" y="857"/>
      <point x="550" y="870"/>
      <point x="567" y="883" type="qcurve"/>
      <point x="601" y="832" type="line"/>
      <point x="557" y="774"/>
    </contour>
  </outline>
</glyph>
<glyph name="Aring" format="2">
  <advance width="638"/>
  <unicode hex="00C5"/>
  <outline>
    <contour>
      <point x="391" y="598" type="line"/>
      <point x="384" y="598" type="line"/>
      <point x="228" y="283" type="line"/>
      <point x="424" y="283" type="line"/>
    </contour>
    <contour>
      <point x="420" y="793" type="qcurve" smooth="yes"/>
      <point x="470" y="793"/>
      <point x="481" y="846" type="qcurve" smooth="yes"/>
      <point x="487" y="874"/>
      <point x="487" y="889" type="qcurve" smooth="yes"/>
      <point x="487" y="929"/>
      <point x="441" y="929" type="qcurve" smooth="yes"/>
      <point x="415" y="929"/>
      <point x="385" y="901"/>
      <point x="374" y="852"/>
      <point x="374" y="835" type="qcurve" smooth="yes"/>
      <point x="374" y="793"/>
    </contour>
    <contour>
      <point x="455" y="0" type="line"/>
      <point x="433" y="189" type="line"/>
      <point x="183" y="189" type="line"/>
      <point x="86" y="0" type="line"/>
      <point x="-30" y="0" type="line"/>
      <point x="337" y="698" type="line"/>
      <point x="477" y="698" type="line"/>
      <point x="565" y="0" type="line"/>
    </contour>
    <contour>
      <point x="414" y="734" type="qcurve" smooth="yes"/>
      <point x="364" y="734"/>
      <point x="302" y="796"/>
      <point x="302" y="843" type="qcurve" smooth="yes"/>
      <point x="302" y="909"/>
      <point x="386" y="988"/>
      <point x="447" y="988" type="qcurve" smooth="yes"/>
      <point x="497" y="988"/>
      <point x="559" y="927"/>
      <point x="559" y="879" type="qcurve" smooth="yes"/>
      <point x="559" y="813"/>
      <point x="476" y="734"/>
    </contour>
  </outline>
</glyph>
<glyph name="Eacute" format="2">
  <advance width="571"/>
  <unicode hex="00C9"/>
  <outline>
    <contour>
      <point x="32" y="0" type="line"/>
      <point x="172" y="698" type="line"/>
      <point x="599" y="698" type="line"/>
      <point x="579" y="602" type="line"/>
      <point x="261" y="602" type="line"/>
      <point x="221" y="400" type="line"/>
      <point x="505" y="400" type="line"/>
      <point x="486" y="304" type="line"/>
      <point x="202" y="304" type="line"/>
      <point x="160" y="96" type="line"/>
      <point x="492" y="96" type="line"/>
      <point x="473" y="0" type="line"/>
    </contour>
    <contour>
      <point x="343" y="783" type="line"/>
      <point x="453" y="962" type="line"/>
      <point x="540" y="916" type="line"/>
      <point x="407" y="749" type="line"/>
    </contour>
  </outline>
</glyph>
<glyph name="germandbls" format="2">
  <advance width="653"/>
  <unicode hex="00DF"/>
  <outline>
    <contour>
      <point x="410" y="-12" type="qcurve" smooth="yes"/>
      <point x="349" y="-12"/>
      <point x="251" y="33"/>
      <point x="223" y="75" type="qcurve"/>
      <point x="291" y="135" type="line"/>
      <point x="336" y="73"/>
      <point x="412" y="73" type="qcurve"/>
      <point x="505" y="78"/>
      <point x="505" y="156" type="qcurve" smooth="yes"/>
      <point x="505" y="181"/>
      <point x="481" y="209"/>
      <point x="451" y="221" type="qcurve" smooth="yes"/>
      <point x="412" y="237" type="line"/>
      <point x="340" y="262"/>
      <point x="319" y="314" type="qcurve" smooth="yes"/>
      <point x="311" y="335"/>
      <point x="311" y="364" type="qcurve" smooth="yes"/>
      <point x="311" y="429"/>
      <point x="414" y="519"/>
      <point x="506" y="525" type="qcurve"/>
      <point x="512" y="561"/>
      <point x="512" y="577" type="qcurve"/>
      <point x="510" y="667"/>
      <point x="408" y="667" type="qcurve" smooth="yes"/>
      <point x="345" y="667"/>
      <point x="270" y="605"/>
      <point x="255" y="529" type="qcurve" smooth="yes"/>
      <point x="149" y="0" type="line"/>
      <point x="45" y="0" type="line"/>
      <point x="132" y="433" type="line"/>
      <point x="52" y="433" type="line"/>
      <point x="69" y="520" type="line"/>
      <point x="150" y="520" type="line"/>
      <point x="152" y="530" type="line" smooth="yes"/>
      <point x="174" y="640"/>
      <point x="312" y="752"/>
      <point x="417" y="752" type="qcurve" smooth="yes"/>
      <point x="507" y="752"/>
      <point x="613" y="659"/>
      <point x="613" y="582" type="qcurve" smooth="yes"/>
      <point x="613" y="549"/>
      <point x="600" y="482"/>
      <point x="593" y="449" type="qcurve"/>
      <point x="535" y="449" type="line" smooth="yes"/>
      <point x="472" y="449"/>
      <point x="410" y="412"/>
      <point x="410" y="379" type="qcurve" smooth="yes"/>
      <point x="410" y="333"/>
      <point x="464" y="314" type="qcurve"/>
      <point x="503" y="298" type="line"/>
      <point x="548" y="282"/>
      <point x="604" y="225"/>
      <point x="604" y="169" type="qcurve" smooth="yes"/>
      <point x="604" y="93"/>
      <point x="499" y="-12"/>
    </contour>
  </outline>
</glyph>
<glyph name="Eogonek" format="2">
  <advance width="571"/>
  <unicode hex="0118"/>
  <outline>
    <contour>
      <point x="378" y="-209" type="qcurve" smooth="yes"/>
      <point x="336" y="-209"/>
      <point x="272" y="-171"/>
      <point x="272" y="-131" type="qcurve" smooth="yes"/>
      <point x="272" y="-51"/>
      <point x="402" y="-5" type="qcurve"/>
      <point x="401" y="0" type="line"/>
      <point x="32" y="0" type="line"/>
      <point x="172" y="698" type="line"/>
      <point x="599" y="698" type="line"/>
      <point x="580" y="602" type="line"/>
      <point x="261" y="602" type="line"/>
      <point x="221" y="400" type="line"/>
      <point x="505" y="400" type="line"/>
      <point x="486" y="304" type="line"/>
      <point x="202" y="304" type="line"/>
      <point x="160" y="96" type="line"/>
      <point x="492" y="96" type="line"/>
      <point x="473" y="0" type="line"/>
      <point x="396" y="-51"/>
      <point x="374" y="-76" type="qcurve" smooth="yes"/>
      <point x="355" y="-98"/>
      <point x="355" y="-117" type="qcurve" smooth="yes"/>
      <point x="355" y="-147"/>
      <point x="389" y="-147" type="qcurve" smooth="yes"/>
      <point x="418" y="-147"/>
      <point x="443" y="-120" type="qcurve"/>
      <point x="486" y="-167" type="line"/>
      <point x="451" y="-209"/>
    </contour>
  </outline>
</glyph>
<glyph name="Gcommaaccent" format="2">
  <advance width="616"/>
  <unicode hex="0122"/>
  <outline>
    <contour>
      <point x="264" y="-60" type="qcurve" smooth="yes"/>
      <point x="289" y="-60"/>
      <point x="311" y="-81"/>
      <point x="311" y="-100" type="qcurve" smooth="yes"/>
      <point x="311" y="-104"/>
      <point x="310" y="-113"/>
      <point x="308" y="-124" type="qcurve" smooth="yes"/>
      <point x="301" y="-161"/>
      <point x="259" y="-230"/>
      <point x="232" y="-252" type="qcurve"/>
      <point x="169" y="-252" type="line"/>
      <point x="194" y="-230"/>
      <point x="220" y="-194"/>
      <point x="231" y="-171" type="qcurve"/>
      <point x="216" y="-169"/>
      <point x="200" y="-150"/>
      <point x="200" y="-135" type="qcurve" smooth="yes"/>
      <point x="200" y="-131"/>
      <point x="202" y="-121"/>
      <point x="204" y="-110" type="qcurve" smooth="yes"/>
      <point x="209" y="-85"/>
      <point x="238" y="-60"/>
    </contour>
    <contour>
      <point x="605" y="370" type="line"/>
      <point x="582" y="253" type="line"/>
      <point x="550" y="116"/>
      <point x="398" y="-12"/>
      <point x="273" y="-12" type="qcurve" smooth="yes"/>
      <point x="225" y="-12"/>
      <point x="140" y="24"/>
      <point x="75" y="95"/>
      <point x="37" y="201"/>
      <point x="37" y="272" type="qcurve" smooth="yes"/>
      <point x="37" y="355"/>
      <point x="82" y="513"/>
      <point x="171" y="636"/>
      <point x="303" y="710"/>
      <point x="390" y="710" type="qcurve" smooth="yes"/>
      <point x="442" y="710"/>
      <point x="520" y="682"/>
      <point x="577" y="637"/>
      <point x="612" y="579"/>
      <point x="621" y="550" type="qcurve"/>
      <point x="529" y="504" type="line"/>
      <point x="524" y="527"/>
      <point x="501" y="569"/>
      <point x="464" y="600"/>
      <point x="412" y="619"/>
      <point x="378" y="619" type="qcurve" smooth="yes"/>
      <point x="296" y="619"/>
      <point x="188" y="510"/>
      <point x="170" y="417" type="qcurve" smooth="yes"/>
      <point x="152" y="322" type="line"/>
      <point x="147" y="303"/>
      <point x="141" y="262"/>
      <point x="141" y="244" type="qcurve" smooth="yes"/>
      <point x="141" y="171"/>
      <point x="218" y="79"/>
      <point x="287" y="79" type="qcurve" smooth="yes"/>
      <point x="355" y="79"/>
      <point x="457" y="152"/>
      <point x="472" y="227" type="qcurve" smooth="yes"/>
      <point x="483" y="277" type="line"/>
      <point x="307" y="277" type="line"/>
      <point x="326" y="370" type="line"/>
    </contour>
  </outline>
</glyph>
<glyph name="Iogonek" format="2">
  <advance width="276"/>
  <unicode hex="012E"/>
  <outline>
    <contour>
      <point x="45" y="-209" type="qcurve" smooth="yes"/>
      <point x="3" y="-209"/>
      <point x="-61" y="-171"/>
      <point x="-61" y="-131" type="qcurve" smooth="yes"/>
      <point x="-61" y="-51"/>
      <point x="70" y="-5" type="qcurve"/>
      <point x="69" y="0" type="line"/>
      <point x="32" y="0" type="line"/>
      <point x="172" y="698" type="line"/>
      <point x="280" y="698" type="line"/>
      <point x="140" y="0" type="line"/>
      <point x="63" y="-51"/>
      <point x="41" y="-76" type="qcurve" smooth="yes"/>
      <point x="22" y="-98"/>
      <point x="22" y="-117" type="qcurve" smooth="yes"/>
      <point x="22" y="-147"/>
      <point x="56" y="-147" type="qcurve" smooth="yes"/>
      <point x="85" y="-147"/>
      <point x="110" y="-120" type="qcurve"/>
      <point x="153" y="-167" type="line"/>
      <point x="118" y="-209"/>
    </contour>
  </outline>
</glyph>
<glyph name="lcommaaccent" format="2">
  <advance width="270"/>
  <unicode hex="013C"/>
  <outline>
    <contour>
      <point x="7" y="-258" type="line"/>
      <point x="33" y="-236"/>
      <point x="62" y="-197"/>
      <point x="73" y="-172" type="qcurve"/>
      <point x="41" y="-165"/>
      <point x="41" y="-134" type="qcurve"/>
      <point x="44" y="-109" type="line"/>
      <point x="56" y="-56"/>
      <point x="110" y="-56" type="qcurve" smooth="yes"/>
      <point x="159" y="-56"/>
      <point x="159" y="-99" type="qcurve" smooth="yes"/>
      <point x="159" y="-108"/>
      <point x="157" y="-117"/>
      <point x="156" y="-124" type="qcurve"/>
      <point x="135" y="-206"/>
      <point x="75" y="-258" type="qcurve"/>
    </contour>
    <contour>
      <point x="120" y="0" type="line" smooth="yes"/>
      <point x="82" y="0"/>
      <point x="42" y="39"/>
      <point x="42" y="70" type="qcurve" smooth="yes"/>
      <point x="42" y="80"/>
      <point x="174" y="740" type="qcurve"/>
      <point x="278" y="740" type="line"/>
      <point x="147" y="87" type="line"/>
      <point x="219" y="87" type="line"/>
      <point x="202" y="0" type="line"/>
    </contour>
  </outline>
</glyph>
<glyph name="Umacron" format="2">
  <advance width="665"/>
  <unicode hex="016A"/>
  <outline>
    <contour>
      <point x="292" y="-12" type="qcurve" smooth="yes"/>
      <point x="189" y="-12"/>
      <point x="78" y="97"/>
      <point x="78" y="200" type="qcurve" smooth="yes"/>
      <point x="78" y="244"/>
      <point x="88" y="298" type="qcurve" smooth="yes"/>
      <point x="168" y="698" type="line"/>
      <point x="276" y="698" type="line"/>
      <point x="192" y="275" type="line"/>
      <point x="183" y="239"/>
      <point x="183" y="207" type="qcurve"/>
      <point x="188" y="88"/>
      <point x="300" y="88" type="qcurve" smooth="yes"/>
      <point x="373" y="88"/>
      <point x="459" y="177"/>
      <point x="479" y="278" type="qcurve" smooth="yes"/>
      <point x="563" y="698" type="line"/>
      <point x="671" y="698" type="line"/>
      <point x="587" y="277" type="line" smooth="yes"/>
      <point x="557" y="123"/>
      <point x="418" y="-12"/>
    </contour>
    <contour>
      <point x="295" y="800" type="line"/>
      <point x="312" y="881" type="line"/>
      <point x="586" y="881" type="line"/>
      <point x="570" y="800" type="line"/>
    </contour>
  </outline>
</glyph>
<glyph name="zdotaccent" format="2">
  <advance width="466"/>
  <unicode hex="017C"/>
  <outline>
    <contour>
      <point x="-8" y="0" type="line"/>
      <point x="9" y="86" type="line"/>
      <point x="335" y="434" type="line"/>
      <point x="79" y="434" type="line"/>
      <point x="96" y="520" type="line"/>
      <point x="477" y="520" type="line"/>
      <point x="460" y="434" type="line"/>
      <point x="133" y="86" type="line"/>
      <point x="404" y="86" type="line"/>
      <point x="387" y="0" type="line"/>
    </contour>
    <contour>
      <point x="306" y="605" type="qcurve" smooth="yes"/>
      <point x="250" y="605"/>
      <point x="250" y="650" type="qcurve" smooth="yes"/>
      <point x="250" y="655"/>
      <point x="252" y="664"/>
      <point x="253" y="674"/>
      <point x="255" y="681" type="qcurve"/>
      <point x="260" y="707"/>
      <point x="292" y="737"/>
      <point x="327" y="737" type="qcurve" smooth="yes"/>
      <point x="383" y="737"/>
      <point x="383" y="692" type="qcurve" smooth="yes"/>
      <point x="383" y="688"/>
      <point x="381" y="678"/>
      <point x="380" y="668"/>
      <point x="378" y="661" type="qcurve"/>
      <point x="373" y="635"/>
      <point x="341" y="605"/>
    </contour>
  </outline>
</glyph>
<glyph name="aringacute" format="2">
  <advance width="586"/>
  <unicode hex="01FB"/>
  <outline>
    <contour>
      <point x="232" y="77" type="qcurve" smooth="yes"/>
      <point x="288" y="77"/>
      <point x="333" y="127" type="qcurve"/>
      <point x="377" y="173"/>
      <point x="390" y="243" type="qcurve" smooth="yes"/>
      <point x="412" y="354"/>
      <point x="412" y="361" type="qcurve" smooth="yes"/>
      <point x="412" y="389"/>
      <point x="391" y="413" type="qcurve" smooth="yes"/>
      <point x="364" y="443"/>
      <point x="311" y="443" type="qcurve" smooth="yes"/>
      <point x="196" y="443"/>
      <point x="169" y="303" type="qcurve" smooth="yes"/>
      <point x="154" y="230" type="line"/>
      <point x="149" y="200"/>
      <point x="149" y="176" type="qcurve" smooth="yes"/>
      <point x="149" y="132"/>
      <point x="190" y="77"/>
    </contour>
    <contour>
      <point x="351" y="622" type="qcurve" smooth="yes"/>
      <point x="408" y="622"/>
      <point x="415" y="690" type="qcurve" smooth="yes"/>
      <point x="416" y="702" type="line"/>
      <point x="416" y="742"/>
      <point x="369" y="742" type="qcurve" smooth="yes"/>
      <point x="312" y="742"/>
      <point x="305" y="674" type="qcurve" smooth="yes"/>
      <point x="304" y="662" type="line"/>
      <point x="305" y="622"/>
    </contour>
    <contour>
      <point x="192" y="-12" type="qcurve" smooth="yes"/>
      <point x="120" y="-12"/>
      <point x="42" y="92"/>
      <point x="42" y="179" type="qcurve" smooth="yes"/>
      <point x="42" y="316"/>
      <point x="109" y="424" type="qcurve"/>
      <point x="141" y="473"/>
      <point x="233" y="532"/>
      <point x="291" y="532" type="qcurve" smooth="yes"/>
      <point x="342" y="532"/>
      <point x="415" y="479"/>
      <point x="424" y="433" type="qcurve"/>
      <point x="429" y="433" type="line"/>
      <point x="446" y="520" type="line"/>
      <point x="550" y="520" type="line"/>
      <point x="463" y="87" type="line"/>
      <point x="530" y="87" type="line"/>
      <point x="513" y="0" type="line"/>
      <point x="434" y="0" type="line"/>
      <point x="358" y="4"/>
      <point x="358" y="68" type="qcurve" smooth="yes"/>
      <point x="358" y="85"/>
      <point x="363" y="107"/>
      <point x="365" y="116" type="qcurve"/>
      <point x="361" y="116" type="line"/>
      <point x="330" y="52"/>
      <point x="252" y="-12"/>
    </contour>
    <contour>
      <point x="346" y="854" type="line"/>
      <point x="458" y="970" type="line"/>
      <point x="515" y="915" type="line"/>
      <point x="386" y="814" type="line"/>
    </contour>
    <contour>
      <point x="343" y="565" type="qcurve" smooth="yes"/>
      <point x="293" y="565"/>
      <point x="231" y="620"/>
      <point x="231" y="665" type="qcurve" smooth="yes"/>
      <point x="231" y="727"/>
      <point x="313" y="799"/>
      <point x="377" y="799" type="qcurve" smooth="yes"/>
      <point x="427" y="799"/>
      <point x="489" y="744"/>
      <point x="489" y="699" type="qcurve" smooth="yes"/>
      <point x="489" y="638"/>
      <point x="448" y="601" type="qcurve"/>
      <point x="405" y="565"/>
    </contour>
  </outline>
</glyph>
<glyph name="breve" format="2">
  <advance width="590"/>
  <unicode hex="02D8"/>
  <outline>
    <contour>
      <point x="305" y="589" type="qcurve" smooth="yes"/>
      <point x="234" y="589"/>
      <point x="197" y="639" type="qcurve"/>
      <point x="165" y="686"/>
      <point x="158" y="739" type="qcurve"/>
      <point x="218" y="768" type="line"/>
      <point x="232" y="739" type="line"/>
      <point x="246" y="705"/>
      <point x="280" y="668"/>
      <point x="310" y="668" type="qcurve" smooth="yes"/>
      <point x="337" y="668"/>
      <point x="381" y="702"/>
      <point x="409" y="740" type="qcurve"/>
      <point x="431" y="768" type="line"/>
      <point x="494" y="737" type="line"/>
      <point x="423" y="589"/>
    </contour>
  </outline>
</glyph>
<glyph name="dotaccent" format="2">
  <advance width="589"/>
  <unicode hex="02D9"/>
  <outline>
    <contour>
      <point x="308" y="605" type="qcurve" smooth="yes"/>
      <point x="252" y="605"/>
      <point x="252" y="650" type="qcurve" smooth="yes"/>
      <point x="252" y="655"/>
      <point x="254" y="664"/>
      <point x="255" y="674"/>
      <point x="257" y="681" type="qcurve"/>
      <point x="262" y="707"/>
      <point x="294" y="737"/>
      <point x="329" y="737" type="qcurve" smooth="yes"/>
      <point x="385" y="737"/>
      <point x="385" y="692" type="qcurve" smooth="yes"/>
      <point x="385" y="688"/>
      <point x="383" y="678"/>
      <point x="382" y="668"/>
      <point x="380" y="661" type="qcurve"/>
      <point x="375" y="635"/>
      <point x="343" y="605"/>
    </contour>
  </outline>
</glyph>
<glyph name="dieresiscomb" format="2">
  <unicode hex="0308"/>
  <outline>
    <contour>
      <point x="111" y="610" type="qcurve" smooth="yes"/>
      <point x="85" y="610"/>
      <point x="60" y="632"/>
      <point x="60" y="650" type="qcurve" smooth="yes"/>
      <point x="60" y="658"/>
      <point x="70" y="703"/>
      <point x="85" y="719" type="qcurve"/>
      <point x="102" y="734"/>
      <point x="135" y="734" type="qcurve" smooth="yes"/>
      <point x="184" y="734"/>
      <point x="184" y="694" type="qcurve" smooth="yes"/>
      <point x="184" y="688"/>
      <point x="180" y="664" type="qcurve"/>
      <point x="169" y="610"/>
    </contour>
    <contour>
      <point x="-78" y="610" type="qcurve" smooth="yes"/>
      <point x="-104" y="610"/>
      <point x="-129" y="632"/>
      <point x="-129" y="650" type="qcurve" smooth="yes"/>
      <point x="-129" y="658"/>
      <point x="-119" y="703"/>
      <point x="-104" y="719" type="qcurve"/>
      <point x="-87" y="734"/>
      <point x="-54" y="734" type="qcurve" smooth="yes"/>
      <point x="-5" y="734"/>
      <point x="-5" y="694" type="qcurve" smooth="yes"/>
      <point x="-5" y="688"/>
      <point x="-9" y="664" type="qcurve"/>
      <point x="-20" y="610"/>
    </contour>
  </outline>
</glyph>
<glyph name="Epsilontonos" format="2">
  <advance width="620"/>
  <unicode hex="0388"/>
  <outline>
    <contour>
      <point x="87" y="0" type="line"/>
      <point x="227" y="698" type="line"/>
      <point x="647" y="698" type="line"/>
      <point x="629" y="612" type="line"/>
      <point x="307" y="612" type="line"/>
      <point x="264" y="397" type="line"/>
      <point x="553" y="397" type="line"/>
      <point x="536" y="311" type="line"/>
      <point x="246" y="311" type="line"/>
      <point x="201" y="86" type="line"/>
      <point x="539" y="86" type="line"/>
      <point x="522" y="0" type="line"/>
    </contour>
    <contour>
      <point x="117" y="583" type="line"/>
      <point x="56" y="600" type="line"/>
      <point x="121" y="789" type="line"/>
      <point x="208" y="767" type="line"/>
    </contour>
  </outline>
</glyph>
<glyph name="Upsilontonos" format="2">
  <advance width="693"/>
  <unicode hex="038E"/>
  <outline>
    <contour>
      <point x="297" y="0" type="line"/>
      <point x="352" y="272" type="line"/>
      <point x="205" y="698" type="line"/>
      <point x="304" y="698" type="line"/>
      <point x="414" y="369" type="line"/>
      <point x="420" y="369" type="line"/>
      <point x="658" y="698" type="line"/>
      <point x="767" y="698" type="line"/>
      <point x="448" y="269" type="line"/>
      <point x="394" y="0" type="line"/>
    </contour>
    <contour>
      <point x="117" y="583" type="line"/>
      <point x="56" y="600" type="line"/>
      <point x="121" y="789" type="line"/>
      <point x="208" y="767" type="line"/>
    </contour>
  </outline>
</glyph>
<glyph name="Alpha" format="2">
  <advance width="638"/>
  <unicode hex="0391"/>
  <outline>
    <contour>
      <point x="388" y="607" type="line"/>
      <point x="382" y="607" type="line"/>
      <point x="217" y="281" type="line"/>
      <point x="425" y="281" type="line"/>
    </contour>
    <contour>
      <point x="457" y="0" type="line"/>
      <point x="434" y="197" type="line"/>
      <point x="175" y="197" type="line"/>
      <point x="73" y="0" type="line"/>
      <point x="-30" y="0" type="line"/>
      <point x="339" y="698" type="line"/>
      <point x="466" y="698" type="line"/>
      <point x="556" y="0" type="line"/>
    </contour>
  </outline>
</glyph>
<glyph name="Upsilon" format="2">
  <advance width="597"/>
  <unicode hex="03A5"/>
  <outline>
    <contour>
      <point x="330" y="0" type="line"/>
      <point x="385" y="272" type="line"/>
      <point x="238" y="698" type="line"/>
      <point x="337" y="698" type="line"/>
      <point x="447" y="369" type="line"/>
      <point x="453" y="369" type="line"/>
      <point x="691" y="698" type="line"/>
      <point x="800" y="698" type="line"/>
      <point x="481" y="269" type="line"/>
      <point x="427" y="0" type="line"/>
    </contour>
  </outline>
</glyph>
<glyph name="Iotadieresis" format="2">
  <advance width="276"/>
  <unicode hex="03AA"/>
  <outline>
    <contour>
      <point x="67" y="0" type="line"/>
      <point x="207" y="698" type="line"/>
      <point x="315" y="698" type="line"/>
      <point x="175" y="0" type="line"/>
    </contour>
    <contour>
      <point x="190" y="780" type="qcurve" smooth="yes"/>
      <point x="143" y="780"/>
      <point x="143" y="819" type="qcurve" smooth="yes"/>
      <point x="143" y="833"/>
      <point x="150" y="861"/>
      <point x="165" y="883"/>
      <point x="191" y="897"/>
      <point x="210" y="897" type="qcurve" smooth="yes"/>
      <point x="232" y="897"/>
      <point x="257" y="878"/>
      <point x="257" y="858" type="qcurve" smooth="yes"/>
      <point x="257" y="843"/>
      <point x="250" y="815"/>
      <point x="234" y="793"/>
      <point x="209" y="780"/>
    </contour>
    <contour>
      <point x="377" y="780" type="qcurve" smooth="yes"/>
      <point x="329" y="780"/>
      <point x="329" y="819" type="qcurve" smooth="yes"/>
      <point x="329" y="833"/>
      <point x="336" y="861"/>
      <point x="352" y="883"/>
      <point x="377" y="897"/>
      <point x="396" y="897" type="qcurve" smooth="yes"/>
      <point x="418" y="897"/>
      <point x="444" y="878"/>
      <point x="444" y="858" type="qcurve" smooth="yes"/>
      <point x="444" y="843"/>
      <point x="437" y="815"/>
      <point x="421" y="793"/>
      <point x="395" y="780"/>
    </contour>
  </outline>
</glyph>
<glyph name="Upsilondieresis" format="2">
  <advance width="597"/>
  <unicode hex="03AB"/>
  <outline>
    <contour>
      <point x="330" y="0" type="line"/>
      <point x="385" y="272" type="line"/>
      <point x="238" y="698" type="line"/>
      <point x="337" y="698" type="line"/>
      <point x="447" y="369" type="line"/>
      <point x="453" y="369" type="line"/>
      <point x="691" y="698" type="line"/>
      <point x="800" y="698" type="line"/>
      <point x="481" y="269" type="line"/>
      <point x="427" y="0" type="line"/>
    </contour>
    <contour>
      <point x="426" y="780" type="qcurve" smooth="yes"/>
      <point x="379" y="780"/>
      <point x="379" y="819" type="qcurve" smooth="yes"/>
      <point x="379" y="833"/>
      <point x="386" y="861"/>
      <point x="401" y="883"/>
      <point x="427" y="897"/>
      <point x="446" y="897" type="qcurve" smooth="yes"/>
      <point x="468" y="897"/>
      <point x="493" y="878"/>
      <point x="493" y="858" type="qcurve" smooth="yes"/>
      <point x="493" y="843"/>
      <point x="486" y="815"/>
      <point x="470" y="793"/>
      <point x="445" y="780"/>
    </contour>
    <contour>
      <point x="613" y="780" type="qcurve" smooth="yes"/>
      <point x="565" y="780"/>
      <point x="565" y="819" type="qcurve" smooth="yes"/>
      <point x="565" y="833"/>
      <point x="572" y="861"/>
      <point x="588" y="883"/>
      <point x="613" y="897"/>
      <point x="632" y="897" type="qcurve" smooth="yes"/>
      <point x="654" y="897"/>
      <point x="680" y="878"/>
      <point x="680" y="858" type="qcurve" smooth="yes"/>
      <point x="680" y="843"/>
      <point x="673" y="815"/>
      <point x="657" y="793"/>
      <point x="631" y="780"/>
    </contour>
  </outline>
</glyph>
<glyph name="alphatonos" format="2">
  <advance width="634"/>
  <unicode hex="03AC"/>
  <outline>
    <contour>
      <point x="222" y="69" type="qcurve" smooth="yes"/>
      <point x="237" y="69"/>
      <point x="265" y="79"/>
      <point x="293" y="104"/>
      <point x="327" y="147"/>
      <point x="348" y="180" type="qcurve" smooth="yes"/>
      <point x="397" y="259" type="line"/>
      <point x="384" y="339" type="line"/>
      <point x="373" y="398"/>
      <point x="335" y="449"/>
      <point x="298" y="449" type="qcurve" smooth="yes"/>
      <point x="250" y="449"/>
      <point x="175" y="373"/>
      <point x="161" y="302" type="qcurve" smooth="yes"/>
      <point x="147" y="231" type="line" smooth="yes"/>
      <point x="141" y="204"/>
      <point x="141" y="181" type="qcurve" smooth="yes"/>
      <point x="141" y="171"/>
      <point x="142" y="153"/>
      <point x="143" y="145" type="qcurve"/>
      <point x="155" y="69"/>
    </contour>
    <contour>
      <point x="558" y="0" type="line"/>
      <point x="508" y="0" type="line" smooth="yes"/>
      <point x="466" y="0"/>
      <point x="425" y="36"/>
      <point x="425" y="76" type="qcurve" smooth="yes"/>
      <point x="425" y="80" type="line"/>
      <point x="426" y="175" type="line"/>
      <point x="422" y="175" type="line"/>
      <point x="394" y="119"/>
      <point x="342" y="47"/>
      <point x="290" y="5"/>
      <point x="235" y="-12"/>
      <point x="205" y="-12" type="qcurve" smooth="yes"/>
      <point x="125" y="-12"/>
      <point x="46" y="87"/>
      <point x="46" y="181" type="qcurve" smooth="yes"/>
      <point x="46" y="247"/>
      <point x="79" y="373"/>
      <point x="143" y="470"/>
      <point x="236" y="530"/>
      <point x="297" y="530" type="qcurve" smooth="yes"/>
      <point x="372" y="530"/>
      <point x="450" y="443"/>
      <point x="454" y="343" type="qcurve"/>
      <point x="458" y="343" type="line"/>
      <point x="507" y="446" type="line"/>
      <point x="545" y="518" type="line"/>
      <point x="648" y="518" type="line"/>
      <point x="488" y="259" type="line"/>
      <point x="515" y="79" type="line"/>
      <point x="574" y="79" type="line"/>
    </contour>
    <contour>
      <point x="363" y="583" type="line"/>
      <point x="302" y="600" type="line"/>
      <point x="367" y="789" type="line"/>
      <point x="454" y="767" type="line"/>
    </contour>
  </outline>
</glyph>
<glyph name="Jecyr" format="2">
  <advance width="514"/>
  <unicode hex="0408"/>
  <outline>
    <contour>
      <point x="190" y="-12" type="qcurve" smooth="yes"/>
      <point x="105" y="-12"/>
      <point x="9" y="84"/>
      <point x="4" y="165" type="qcurve"/>
      <point x="105" y="185" type="line"/>
      <point x="111" y="85"/>
      <point x="192" y="85" type="qcurve" smooth="yes"/>
      <point x="286" y="85"/>
      <point x="309" y="199" type="qcurve" smooth="yes"/>
      <point x="408" y="698" type="line"/>
      <point x="518" y="698" type="line"/>
      <point x="415" y="186" type="line" smooth="yes"/>
      <point x="396" y="92"/>
      <point x="282" y="-12"/>
    </contour>
  </outline>
</glyph>
<glyph name="Ljecyr" format="2">
  <advance width="997"/>
  <unicode hex="0409"/>
  <outline>
    <contour>
      <point x="722" y="96" type="line" smooth="yes"/>
      <point x="765" y="96"/>
      <point x="824" y="140"/>
      <point x="833" y="185" type="qcurve" smooth="yes"/>
      <point x="845" y="241"/>
      <point x="845" y="265" type="qcurve" smooth="yes"/>
      <point x="845" y="333"/>
      <point x="765" y="333" type="qcurve" smooth="yes"/>
      <point x="593" y="333" type="line"/>
      <point x="546" y="96" type="line"/>
    </contour>
    <contour>
      <point x="-35" y="-3" type="line"/>
      <point x="-16" y="96" type="line"/>
      <point x="58" y="96" type="line"/>
      <point x="99" y="128"/>
      <point x="170" y="290"/>
      <point x="207" y="475" type="qcurve" smooth="yes"/>
      <point x="252" y="698" type="line"/>
      <point x="666" y="698" type="line"/>
      <point x="613" y="429" type="line"/>
      <point x="765" y="429" type="line" smooth="yes"/>
      <point x="863" y="429"/>
      <point x="957" y="333"/>
      <point x="957" y="249" type="qcurve" smooth="yes"/>
      <point x="957" y="137"/>
      <point x="820" y="0"/>
      <point x="707" y="0" type="qcurve" smooth="yes"/>
      <point x="418" y="0" type="line"/>
      <point x="538" y="602" type="line"/>
      <point x="337" y="602" type="line"/>
      <point x="312" y="472" type="line" smooth="yes"/>
      <point x="271" y="273"/>
      <point x="196" y="94"/>
      <point x="158" y="58" type="qcurve"/>
      <point x="99" y="-3"/>
      <point x="7" y="-3" type="qcurve" smooth="yes"/>
    </contour>
  </outline>
</glyph>
<glyph name="Njecyr" format="2">
  <advance width="1005"/>
  <unicode hex="040A"/>
  <outline>
    <contour>
      <point x="730" y="96" type="line" smooth="yes"/>
      <point x="772" y="96"/>
      <point x="831" y="140"/>
      <point x="841" y="185" type="qcurve" smooth="yes"/>
      <point x="853" y="241"/>
      <point x="853" y="265" type="qcurve" smooth="yes"/>
      <point x="853" y="333"/>
      <point x="772" y="333" type="qcurve" smooth="yes"/>
      <point x="601" y="333" type="line"/>
      <point x="554" y="96" type="line"/>
    </contour>
    <contour>
      <point x="426" y="0" type="line"/>
      <point x="487" y="304" type="line"/>
      <point x="202" y="304" type="line"/>
      <point x="140" y="0" type="line"/>
      <point x="32" y="0" type="line"/>
      <point x="172" y="698" type="line"/>
      <point x="280" y="698" type="line"/>
      <point x="221" y="400" type="line"/>
      <point x="506" y="400" type="line"/>
      <point x="566" y="698" type="line"/>
      <point x="674" y="698" type="line"/>
      <point x="621" y="429" type="line"/>
      <point x="773" y="429" type="line" smooth="yes"/>
      <point x="871" y="429"/>
      <point x="965" y="333"/>
      <point x="965" y="249" type="qcurve" smooth="yes"/>
      <point x="965" y="137"/>
      <point x="828" y="0"/>
      <point x="715" y="0" type="qcurve" smooth="yes"/>
    </contour>
  </outline>
</glyph>
<glyph name="Gecyr" format="2">
  <advance width="490"/>
  <unicode hex="0413"/>
  <outline>
    <contour>
      <point x="32" y="0" type="line"/>
      <point x="172" y="698" type="line"/>
      <point x="550" y="698" type="line"/>
      <point x="531" y="602" type="line"/>
      <point x="261" y="602" type="line"/>
      <point x="140" y="0" type="line"/>
    </contour>
  </outline>
</glyph>
<glyph name="Ylongcyr" format="2">
  <advance width="875"/>
  <unicode hex="042B"/>
  <outline>
    <contour>
      <point x="336" y="96" type="line" smooth="yes"/>
      <point x="379" y="96"/>
      <point x="438" y="140"/>
      <point x="448" y="185" type="qcurve" smooth="yes"/>
      <point x="460" y="241"/>
      <point x="460" y="265" type="qcurve" smooth="yes"/>
      <point x="460" y="333"/>
      <point x="379" y="333" type="qcurve" smooth="yes"/>
      <point x="207" y="333" type="line"/>
      <point x="160" y="96" type="line"/>
    </contour>
    <contour>
      <point x="630" y="0" type="line"/>
      <point x="770" y="698" type="line"/>
      <point x="878" y="698" type="line"/>
      <point x="738" y="0" type="line"/>
    </contour>
    <contour>
      <point x="32" y="0" type="line"/>
      <point x="172" y="698" type="line"/>
      <point x="280" y="698" type="line"/>
      <point x="227" y="429" type="line"/>
      <point x="380" y="429" type="line" smooth="yes"/>
      <point x="477" y="429"/>
      <point x="572" y="333"/>
      <point x="572" y="249" type="qcurve" smooth="yes"/>
      <point x="572" y="137"/>
      <point x="434" y="0"/>
      <point x="321" y="0" type="qcurve" smooth="yes"/>
    </contour>
  </outline>
</glyph>
<glyph name="zecyr" format="2">
  <advance width="489"/>
  <unicode hex="0437"/>
  <outline>
    <contour>
      <point x="192" y="-12" type="qcurve" smooth="yes"/>
      <point x="53" y="-12"/>
      <point x="-4" y="83" type="qcurve"/>
      <point x="66" y="142" type="line"/>
      <point x="103" y="75"/>
      <point x="193" y="75" type="qcurve" smooth="yes"/>
      <point x="248" y="75"/>
      <point x="309" y="112"/>
      <point x="315" y="145" type="qcurve"/>
      <point x="319" y="160"/>
      <point x="319" y="177" type="qcurve" smooth="yes"/>
      <point x="319" y="228"/>
      <point x="241" y="228" type="qcurve" smooth="yes"/>
      <point x="143" y="228" type="line"/>
      <point x="159" y="307" type="line"/>
      <point x="256" y="307" type="line" smooth="yes"/>
      <point x="289" y="307"/>
      <point x="315" y="322" type="qcurve" smooth="yes"/>
      <point x="350" y="342"/>
      <point x="350" y="392" type="qcurve"/>
      <point x="348" y="445"/>
      <point x="264" y="445" type="qcurve" smooth="yes"/>
      <point x="174" y="445"/>
      <point x="122" y="382" type="qcurve"/>
      <point x="62" y="443" type="line"/>
      <point x="101" y="487"/>
      <point x="202" y="532"/>
      <point x="272" y="532" type="qcurve" smooth="yes"/>
      <point x="363" y="532"/>
      <point x="452" y="459"/>
      <point x="452" y="403" type="qcurve" smooth="yes"/>
      <point x="452" y="297"/>
      <point x="330" y="273" type="qcurve"/>
      <point x="329" y="269" type="line"/>
      <point x="421" y="255"/>
      <point x="421" y="171" type="qcurve" smooth="yes"/>
      <point x="421" y="89"/>
      <point x="290" y="-12"/>
    </contour>
  </outline>
</glyph>
<glyph name="ucyr" format="2">
  <advance width="495"/>
  <unicode hex="0443"/>
  <outline>
    <contour>
      <point x="-24" y="-200" type="line"/>
      <point x="-7" y="-114" type="line"/>
      <point x="88" y="-114" type="line"/>
      <point x="137" y="-22" type="line"/>
      <point x="58" y="520" type="line"/>
      <point x="160" y="520" type="line"/>
      <point x="191" y="289" type="line"/>
      <point x="210" y="98" type="line"/>
      <point x="215" y="98" type="line"/>
      <point x="306" y="289" type="line"/>
      <point x="425" y="520" type="line"/>
      <point x="536" y="520" type="line"/>
      <point x="198" y="-103" type="line"/>
      <point x="172" y="-154"/>
      <point x="109" y="-200"/>
      <point x="55" y="-200" type="qcurve" smooth="yes"/>
    </contour>
  </outline>
</glyph>
<glyph name="ereversedcyr" format="2">
  <advance width="503"/>
  <unicode hex="044D"/>
  <outline>
    <contour>
      <point x="191" y="-12" type="qcurve" smooth="yes"/>
      <point x="115" y="-12"/>
      <point x="19" y="57"/>
      <point x="2" y="118" type="qcurve"/>
      <point x="86" y="157" type="line"/>
      <point x="112" y="76"/>
      <point x="196" y="76" type="qcurve" smooth="yes"/>
      <point x="256" y="76"/>
      <point x="323" y="142"/>
      <point x="337" y="205" type="qcurve" smooth="yes"/>
      <point x="341" y="224" type="line"/>
      <point x="150" y="224" type="line"/>
      <point x="166" y="303" type="line"/>
      <point x="356" y="303" type="line"/>
      <point x="359" y="321"/>
      <point x="359" y="339" type="qcurve" smooth="yes"/>
      <point x="359" y="386"/>
      <point x="306" y="444"/>
      <point x="248" y="444" type="qcurve" smooth="yes"/>
      <point x="206" y="444"/>
      <point x="146" y="407"/>
      <point x="120" y="369" type="qcurve"/>
      <point x="48" y="420" type="line"/>
      <point x="85" y="474"/>
      <point x="184" y="532"/>
      <point x="259" y="532" type="qcurve" smooth="yes"/>
      <point x="352" y="532"/>
      <point x="462" y="421"/>
      <point x="462" y="314" type="qcurve" smooth="yes"/>
      <point x="462" y="178"/>
      <point x="313" y="-12"/>
    </contour>
  </outline>
</glyph>
<glyph name="njecyr" format="2">
  <advance width="807"/>
  <unicode hex="045A"/>
  <outline>
    <contour>
      <point x="545" y="83" type="line" smooth="yes"/>
      <point x="628" y="83"/>
      <point x="649" y="164" type="qcurve" smooth="yes"/>
      <point x="653" y="179"/>
      <point x="653" y="205" type="qcurve" smooth="yes"/>
      <point x="653" y="232"/>
      <point x="618" y="264"/>
      <point x="581" y="264" type="qcurve" smooth="yes"/>
      <point x="477" y="264" type="line"/>
      <point x="441" y="83" type="line"/>
    </contour>
    <contour>
      <point x="321" y="0" type="line"/>
      <point x="365" y="223" type="line"/>
      <point x="175" y="223" type="line"/>
      <point x="131" y="0" type="line"/>
      <point x="27" y="0" type="line"/>
      <point x="131" y="520" type="line"/>
      <point x="235" y="520" type="line"/>
      <point x="193" y="310" type="line"/>
      <point x="383" y="310" type="line"/>
      <point x="425" y="520" type="line"/>
      <point x="529" y="520" type="line"/>
      <point x="494" y="346" type="line"/>
      <point x="610" y="346" type="line" smooth="yes"/>
      <point x="684" y="346"/>
      <point x="757" y="273"/>
      <point x="757" y="208" type="qcurve" smooth="yes"/>
      <point x="757" y="114"/>
      <point x="698" y="55" type="qcurve"/>
      <point x="637" y="0"/>
      <point x="551" y="0" type="qcurve" smooth="yes"/>
    </contour>
  </outline>
</glyph>
<glyph name="Fitacyr" format="2">
  <advance width="685"/>
  <unicode hex="0472"/>
  <outline>
    <contour>
      <point x="310" y="81" type="qcurve" smooth="yes"/>
      <point x="484" y="81"/>
      <point x="529" y="304" type="qcurve"/>
      <point x="167" y="304" type="line"/>
      <point x="160" y="267"/>
      <point x="160" y="238" type="qcurve"/>
      <point x="165" y="81"/>
    </contour>
    <contour>
      <point x="549" y="400" type="line"/>
      <point x="554" y="435"/>
      <point x="554" y="460" type="qcurve"/>
      <point x="550" y="617"/>
      <point x="404" y="617" type="qcurve" smooth="yes"/>
      <point x="319" y="617"/>
      <point x="208" y="506"/>
      <point x="187" y="405" type="qcurve" smooth="yes"/>
      <point x="186" y="400" type="line"/>
    </contour>
    <contour>
      <point x="302" y="-12" type="qcurve" smooth="yes"/>
      <point x="200" y="-12"/>
      <point x="128" y="57" type="qcurve"/>
      <point x="56" y="130"/>
      <point x="56" y="265" type="qcurve" smooth="yes"/>
      <point x="56" y="441"/>
      <point x="154" y="576" type="qcurve"/>
      <point x="201" y="638"/>
      <point x="331" y="710"/>
      <point x="412" y="710" type="qcurve" smooth="yes"/>
      <point x="520" y="710"/>
      <point x="587" y="642" type="qcurve" smooth="yes"/>
      <point x="658" y="568"/>
      <point x="658" y="433" type="qcurve" smooth="yes"/>
      <point x="658" y="258"/>
      <point x="561" y="123" type="qcurve"/>
      <point x="514" y="61"/>
      <point x="383" y="-12"/>
    </contour>
  </outline>
</glyph>
<glyph name="Gestrokecyr" format="2">
  <advance width="519"/>
  <unicode hex="0492"/>
  <outline>
    <contour>
      <point x="60" y="0" type="line"/>
      <point x="123" y="314" type="line"/>
      <point x="32" y="314" type="line"/>
      <point x="49" y="397" type="line"/>
      <point x="140" y="397" type="line"/>
      <point x="200" y="698" type="line"/>
      <point x="578" y="698" type="line"/>
      <point x="559" y="602" type="line"/>
      <point x="289" y="602" type="line"/>
      <point x="248" y="397" type="line"/>
      <point x="428" y="397" type="line"/>
      <point x="412" y="314" type="line"/>
      <point x="231" y="314" type="line"/>
      <point x="168" y="0" type="line"/>
    </contour>
  </outline>
</glyph>
<glyph name="estailcyr" format="2">
  <advance width="491"/>
  <unicode hex="04AB"/>
  <outline>
    <contour>
      <point x="154" y="-140" type="line"/>
      <point x="181" y="-5" type="line"/>
      <point x="117" y="11"/>
      <point x="42" y="116"/>
      <point x="42" y="206" type="qcurve" smooth="yes"/>
      <point x="42" y="343"/>
      <point x="190" y="532"/>
      <point x="306" y="532" type="qcurve" smooth="yes"/>
      <point x="378" y="532"/>
      <point x="471" y="463"/>
      <point x="484" y="405" type="qcurve"/>
      <point x="397" y="370" type="line"/>
      <point x="386" y="405"/>
      <point x="343" y="444"/>
      <point x="301" y="444" type="qcurve" smooth="yes"/>
      <point x="193" y="444"/>
      <point x="167" y="313" type="qcurve" smooth="yes"/>
      <point x="150" y="227" type="line" smooth="yes"/>
      <point x="145" y="203"/>
      <point x="145" y="183" type="qcurve" smooth="yes"/>
      <point x="145" y="135"/>
      <point x="195" y="76"/>
      <point x="247" y="76" type="qcurve" smooth="yes"/>
      <point x="285" y="76"/>
      <point x="341" y="121"/>
      <point x="367" y="169" type="qcurve"/>
      <point x="447" y="131" type="line"/>
      <point x="388" y="9"/>
      <point x="274" y="-9" type="qcurve"/>
      <point x="247" y="-140" type="line"/>
    </contour>
  </outline>
</glyph>
<glyph name="ustraightcyr" format="2">
  <advance width="496"/>
  <unicode hex="04AF"/>
  <outline>
    <contour>
      <point x="101" y="-200" type="line"/>
      <point x="141" y="0" type="line"/>
      <point x="58" y="520" type="line"/>
      <point x="160" y="520" type="line"/>
      <point x="193" y="287" type="line"/>
      <point x="211" y="114" type="line"/>
      <point x="217" y="114" type="line"/>
      <point x="299" y="287" type="line"/>
      <point x="423" y="520" type="line"/>
      <point x="534" y="520" type="line"/>
      <point x="245" y="0" type="line"/>
      <point x="205" y="-200" type="line"/>
    </contour>
  </outline>
</glyph>
<glyph name="Adieresiscyr" format="2">
  <advance width="638"/>
  <unicode hex="04D2"/>
  <outline>
    <contour>
      <point x="391" y="598" type="line"/>
      <point x="384" y="598" type="line"/>
      <point x="228" y="283" type="line"/>
      <point x="424" y="283" type="line"/>
    </contour>
    <contour>
      <point x="455" y="0" type="line"/>
      <point x="433" y="189" type="line"/>
      <point x="183" y="189" type="line"/>
      <point x="86" y="0" type="line"/>
      <point x="-30" y="0" type="line"/>
      <point x="337" y="698" type="line"/>
      <point x="477" y="698" type="line"/>
      <point x="565" y="0" type="line"/>
    </contour>
    <contour>
      <point x="323" y="776" type="qcurve" smooth="yes"/>
      <point x="297" y="776"/>
      <point x="272" y="798"/>
      <point x="272" y="816" type="qcurve" smooth="yes"/>
      <point x="272" y="826"/>
      <point x="282" y="871"/>
      <point x="297" y="887" type="qcurve"/>
      <point x="314" y="902"/>
      <point x="347" y="902" type="qcurve" smooth="yes"/>
      <point x="396" y="902"/>
      <point x="396" y="862" type="qcurve" smooth="yes"/>
      <point x="396" y="852"/>
      <point x="387" y="806"/>
      <point x="355" y="776"/>
    </contour>
    <contour>
      <point x="512" y="776" type="qcurve" smooth="yes"/>
      <point x="486" y="776"/>
      <point x="461" y="798"/>
      <point x="461" y="816" type="qcurve" smooth="yes"/>
      <point x="461" y="826"/>
      <point x="471" y="871"/>
      <point x="486" y="887" type="qcurve"/>
      <point x="503" y="902"/>
      <point x="536" y="902" type="qcurve" smooth="yes"/>
      <point x="585" y="902"/>
      <point x="585" y="862" type="qcurve" smooth="yes"/>
      <point x="585" y="852"/>
      <point x="576" y="806"/>
      <point x="544" y="776"/>
    </contour>
  </outline>
</glyph>
<glyph name="Udieresiscyr" format="2">
  <advance width="577"/>
  <unicode hex="04F0"/>
  <outline>
    <contour>
      <point x="72" y="0" type="line"/>
      <point x="91" y="96" type="line"/>
      <point x="195" y="96" type="line"/>
      <point x="232" y="161" type="line"/>
      <point x="104" y="698" type="line"/>
      <point x="214" y="698" type="line"/>
      <point x="277" y="426" type="line"/>
      <point x="304" y="281" type="line"/>
      <point x="310" y="281" type="line"/>
      <point x="381" y="425" type="line"/>
      <point x="534" y="698" type="line"/>
      <point x="648" y="698" type="line"/>
      <point x="295" y="83" type="line" smooth="yes"/>
      <point x="268" y="36"/>
      <point x="212" y="0"/>
      <point x="165" y="0" type="qcurve" smooth="yes"/>
    </contour>
    <contour>
      <point x="287" y="776" type="qcurve" smooth="yes"/>
      <point x="261" y="776"/>
      <point x="236" y="798"/>
      <point x="236" y="816" type="qcurve" smooth="yes"/>
      <point x="236" y="826"/>
      <point x="246" y="871"/>
      <point x="261" y="887" type="qcurve"/>
      <point x="278" y="902"/>
      <point x="311" y="902" type="qcurve" smooth="yes"/>
      <point x="360" y="902"/>
      <point x="360" y="862" type="qcurve" smooth="yes"/>
      <point x="360" y="852"/>
      <point x="351" y="806"/>
      <point x="319" y="776"/>
    </contour>
    <contour>
      <point x="476" y="776" type="qcurve" smooth="yes"/>
      <point x="450" y="776"/>
      <point x="425" y="798"/>
      <point x="425" y="816" type="qcurve" smooth="yes"/>
      <point x="425" y="826"/>
      <point x="435" y="871"/>
      <point x="450" y="887" type="qcurve"/>
      <point x="467" y="902"/>
      <point x="500" y="902" type="qcurve" smooth="yes"/>
      <point x="549" y="902"/>
      <point x="549" y="862" type="qcurve" smooth="yes"/>
      <point x="549" y="852"/>
      <point x="540" y="806"/>
      <point x="508" y="776"/>
    </contour>
  </outline>
</glyph>
<glyph name="Uacutedblcyr" format="2">
  <advance width="577"/>
  <unicode hex="04F2"/>
  <outline>
    <contour>
      <point x="72" y="0" type="line"/>
      <point x="91" y="96" type="line"/>
      <point x="195" y="96" type="line"/>
      <point x="232" y="161" type="line"/>
      <point x="104" y="698" type="line"/>
      <point x="214" y="698" type="line"/>
      <point x="277" y="426" type="line"/>
      <point x="304" y="281" type="line"/>
      <point x="310" y="281" type="line"/>
      <point x="381" y="425" type="line"/>
      <point x="534" y="698" type="line"/>
      <point x="648" y="698" type="line"/>
      <point x="295" y="83" type="line" smooth="yes"/>
      <point x="268" y="36"/>
      <point x="212" y="0"/>
      <point x="165" y="0" type="qcurve" smooth="yes"/>
    </contour>
    <contour>
      <point x="231" y="778" type="line"/>
      <point x="339" y="958" type="line"/>
      <point x="421" y="915" type="line"/>
      <point x="290" y="749" type="line"/>
    </contour>
    <contour>
      <point x="405" y="778" type="line"/>
      <point x="513" y="958" type="line"/>
      <point x="594" y="915" type="line"/>
      <point x="463" y="749" type="line"/>
    </contour>
  </outline>
</glyph>
<glyph name="Chedieresiscyr" format="2">
  <advance width="638"/>
  <unicode hex="04F4"/>
  <outline>
    <contour>
      <point x="393" y="0" type="line"/>
      <point x="447" y="266" type="line"/>
      <point x="442" y="266" type="line"/>
      <point x="382" y="239"/>
      <point x="296" y="239" type="qcurve" smooth="yes"/>
      <point x="196" y="239"/>
      <point x="95" y="332"/>
      <point x="95" y="419" type="qcurve" smooth="yes"/>
      <point x="95" y="466"/>
      <point x="108" y="524" type="qcurve"/>
      <point x="143" y="698" type="line"/>
      <point x="251" y="698" type="line"/>
      <point x="213" y="508" type="line"/>
      <point x="203" y="464"/>
      <point x="203" y="435" type="qcurve" smooth="yes"/>
      <point x="203" y="384"/>
      <point x="260" y="336"/>
      <point x="322" y="336" type="qcurve" smooth="yes"/>
      <point x="412" y="336"/>
      <point x="465" y="358" type="qcurve"/>
      <point x="533" y="698" type="line"/>
      <point x="641" y="698" type="line"/>
      <point x="501" y="0" type="line"/>
    </contour>
    <contour>
      <point x="313" y="776" type="qcurve" smooth="yes"/>
      <point x="287" y="776"/>
      <point x="262" y="798"/>
      <point x="262" y="816" type="qcurve" smooth="yes"/>
      <point x="262" y="826"/>
      <point x="272" y="871"/>
      <point x="287" y="887" type="qcurve"/>
      <point x="304" y="902"/>
      <point x="337" y="902" type="qcurve" smooth="yes"/>
      <point x="386" y="902"/>
      <point x="386" y="862" type="qcurve" smooth="yes"/>
      <point x="386" y="852"/>
      <point x="377" y="806"/>
      <point x="345" y="776"/>
    </contour>
    <contour>
      <point x="502" y="776" type="qcurve" smooth="yes"/>
      <point x="476" y="776"/>
      <point x="451" y="798"/>
      <point x="451" y="816" type="qcurve" smooth="yes"/>
      <point x="451" y="826"/>
      <point x="461" y="871"/>
      <point x="476" y="887" type="qcurve"/>
      <point x="493" y="902"/>
      <point x="526" y="902" type="qcurve" smooth="yes"/>
      <point x="575" y="902"/>
      <point x="575" y="862" type="qcurve" smooth="yes"/>
      <point x="575" y="852"/>
      <point x="566" y="806"/>
      <point x="534" y="776"/>
    </contour>
  </outline>
</glyph>
<glyph name="Wdieresis" format="2">
  <advance width="896"/>
  <unicode hex="1E84"/>
  <outline>
    <contour>
      <point x="533" y="0" type="line"/>
      <point x="519" y="335" type="line"/>
      <point x="513" y="576" type="line"/>
      <point x="507" y="576" type="line"/>
      <point x="258" y="0" type="line"/>
      <point x="131" y="0" type="line"/>
      <point x="109" y="698" type="line"/>
      <point x="216" y="698" type="line"/>
      <point x="219" y="376" type="line"/>
      <point x="218" y="119" type="line"/>
      <point x="225" y="119" type="line"/>
      <point x="345" y="410" type="line"/>
      <point x="471" y="698" type="line"/>
      <point x="594" y="698" type="line"/>
      <point x="605" y="409" type="line"/>
      <point x="610" y="116" type="line"/>
      <point x="617" y="116" type="line"/>
      <point x="715" y="364" type="line"/>
      <point x="851" y="698" type="line"/>
      <point x="961" y="698" type="line"/>
      <point x="658" y="0" type="line"/>
    </contour>
    <contour>
      <point x="450" y="776" type="qcurve" smooth="yes"/>
      <point x="424" y="776"/>
      <point x="399" y="798"/>
      <point x="399" y="816" type="qcurve" smooth="yes"/>
      <point x="399" y="826"/>
      <point x="409" y="871"/>
      <point x="424" y="887" type="qcurve"/>
      <point x="441" y="902"/>
      <point x="474" y="902" type="qcurve" smooth="yes"/>
      <point x="523" y="902"/>
      <point x="523" y="862" type="qcurve" smooth="yes"/>
      <point x="523" y="852"/>
      <point x="514" y="806"/>
      <point x="482" y="776"/>
    </contour>
    <contour>
      <point x="639" y="776" type="qcurve" smooth="yes"/>
      <point x="613" y="776"/>
      <point x="588" y="798"/>
      <point x="588" y="816" type="qcurve" smooth="yes"/>
      <point x="588" y="826"/>
      <point x="598" y="871"/>
      <point x="613" y="887" type="qcurve"/>
      <point x="630" y="902"/>
      <point x="663" y="902" type="qcurve" smooth="yes"/>
      <point x="712" y="902"/>
      <point x="712" y="862" type="qcurve" smooth="yes"/>
      <point x="712" y="852"/>
      <point x="703" y="806"/>
      <point x="671" y="776"/>
    </contour>
  </outline>
</glyph>
<glyph name="Acircumflextilde" format="2">
  <advance width="638"/>
  <unicode hex="1EAA"/>
  <outline>
    <contour>
      <point x="391" y="598" type="line"/>
      <point x="384" y="598" type="line"/>
      <point x="228" y="283" type="line"/>
      <point x="424" y="283" type="line"/>
    </contour>
    <contour>
      <point x="455" y="0" type="line"/>
      <point x="433" y="189" type="line"/>
      <point x="183" y="189" type="line"/>
      <point x="86" y="0" type="line"/>
      <point x="-30" y="0" type="line"/>
      <point x="337" y="698" type="line"/>
      <point x="477" y="698" type="line"/>
      <point x="565" y="0" type="line"/>
    </contour>
    <contour>
      <point x="513" y="949" type="qcurve" smooth="yes"/>
      <point x="491" y="949"/>
      <point x="459" y="963"/>
      <point x="444" y="973" type="qcurve" smooth="yes"/>
      <point x="408" y="996"/>
      <point x="378" y="996" type="qcurve" smooth="yes"/>
      <point x="363" y="996"/>
      <point x="335" y="982"/>
      <point x="318" y="969" type="qcurve"/>
      <point x="289" y="1016" type="line"/>
      <point x="337" y="1073"/>
      <point x="397" y="1073" type="qcurve" smooth="yes"/>
      <point x="419" y="1073"/>
      <point x="451" y="1059"/>
      <point x="467" y="1050" type="qcurve"/>
      <point x="504" y="1027"/>
      <point x="532" y="1027" type="qcurve" smooth="yes"/>
      <point x="548" y="1027"/>
      <point x="575" y="1040"/>
      <point x="592" y="1053" type="qcurve"/>
      <point x="621" y="1006" type="line"/>
      <point x="576" y="949"/>
    </contour>
    <contour>
      <point x="432" y="852" type="line"/>
      <point x="300" y="743" type="line"/>
      <point x="249" y="788" type="line"/>
      <point x="395" y="921" type="line"/>
      <point x="487" y="921" type="line"/>
      <point x="585" y="788" type="line"/>
      <point x="531" y="743" type="line"/>
    </contour>
  </outline>
</glyph>
<glyph name="Abrevedotbelow" format="2">
  <advance width="638"/>
  <unicode hex="1EB6"/>
  <outline>
    <contour>
      <point x="391" y="598" type="line"/>
      <point x="384" y="598" type="line"/>
      <point x="228" y="283" type="line"/>
      <point x="424" y="283" type="line"/>
    </contour>
    <contour>
      <point x="239" y="-184" type="qcurve" smooth="yes"/>
      <point x="185" y="-184"/>
      <point x="185" y="-141" type="qcurve"/>
      <point x="186" y="-133" type="line"/>
      <point x="189" y="-130"/>
      <point x="190" y="-112" type="qcurve"/>
      <point x="201" y="-60"/>
      <point x="257" y="-60" type="qcurve" smooth="yes"/>
      <point x="259" y="-60" type="line" smooth="yes"/>
      <point x="311" y="-60"/>
      <point x="311" y="-103" type="qcurve" smooth="yes"/>
      <point x="311" y="-112"/>
      <point x="307" y="-121"/>
      <point x="306" y="-132" type="qcurve"/>
      <point x="295" y="-184"/>
    </contour>
    <contour>
      <point x="419" y="755" type="qcurve" smooth="yes"/>
      <point x="348" y="755"/>
      <point x="310" y="805" type="qcurve"/>
      <point x="277" y="852"/>
      <point x="271" y="905" type="qcurve"/>
      <point x="331" y="934" type="line"/>
      <point x="345" y="903" type="line" smooth="yes"/>
      <point x="359" y="870"/>
      <point x="393" y="833"/>
      <point x="423" y="833" type="qcurve" smooth="yes"/>
      <point x="477" y="833"/>
      <point x="522" y="904" type="qcurve"/>
      <point x="544" y="934" type="line"/>
      <point x="607" y="903" type="line"/>
      <point x="583" y="848"/>
      <point x="539" y="804" type="qcurve" smooth="yes"/>
      <point x="489" y="755"/>
    </contour>
    <contour>
      <point x="455" y="0" type="line"/>
      <point x="433" y="189" type="line"/>
      <point x="183" y="189" type="line"/>
      <point x="86" y="0" type="line"/>
      <point x="-30" y="0" type="line"/>
      <point x="337" y="698" type="line"/>
      <point x="477" y="698" type="line"/>
      <point x="565" y="0" type="line"/>
    </contour>
  </outline>
</glyph>
<glyph name="Ehoi" format="2">
  <advance width="571"/>
  <unicode hex="1EBA"/>
  <outline>
    <contour>
      <point x="32" y="0" type="line"/>
      <point x="172" y="698" type="line"/>
      <point x="599" y="698" type="line"/>
      <point x="579" y="602" type="line"/>
      <point x="261" y="602" type="line"/>
      <point x="221" y="400" type="line"/>
      <point x="505" y="400" type="line"/>
      <point x="486" y="304" type="line"/>
      <point x="202" y="304" type="line"/>
      <point x="160" y="96" type="line"/>
      <point x="492" y="96" type="line"/>
      <point x="473" y="0" type="line"/>
    </contour>
    <contour>
      <point x="370" y="768" type="line"/>
      <point x="430" y="869" type="line"/>
      <point x="314" y="869" type="line"/>
      <point x="327" y="947" type="line"/>
      <point x="451" y="947" type="line" smooth="yes"/>
      <point x="489" y="947"/>
      <point x="519" y="915"/>
      <point x="519" y="895" type="qcurve" smooth="yes"/>
      <point x="519" y="866"/>
      <point x="488" y="815"/>
      <point x="463" y="786" type="qcurve" smooth="yes"/>
      <point x="423" y="740" type="line"/>
    </contour>
  </outline>
</glyph>
<glyph name="quoteright" format="2">
  <advance width="279"/>
  <unicode hex="2019"/>
  <outline>
    <contour>
      <point x="83" y="473" type="line"/>
      <point x="159" y="535"/>
      <point x="193" y="604" type="qcurve"/>
      <point x="152" y="613"/>
      <point x="152" y="650" type="qcurve" smooth="yes"/>
      <point x="152" y="667"/>
      <point x="157" y="687" type="qcurve"/>
      <point x="170" y="750"/>
      <point x="235" y="750" type="qcurve" smooth="yes"/>
      <point x="267" y="750"/>
      <point x="297" y="721"/>
      <point x="297" y="699" type="qcurve" smooth="yes"/>
      <point x="297" y="682"/>
      <point x="292" y="663" type="qcurve"/>
      <point x="281" y="615"/>
      <point x="220" y="512"/>
      <point x="166" y="473" type="qcurve"/>
    </contour>
  </outline>
</glyph>
<glyph name="dagger" format="2">
  <advance width="523"/>
  <unicode hex="2020"/>
  <outline>
    <contour>
      <point x="123" y="-200" type="line"/>
      <point x="250" y="435" type="line"/>
      <point x="71" y="435" type="line"/>
      <point x="87" y="516" type="line"/>
      <point x="267" y="516" type="line"/>
      <point x="312" y="740" type="line"/>
      <point x="402" y="740" type="line"/>
      <point x="357" y="516" type="line"/>
      <point x="534" y="516" type="line"/>
      <point x="518" y="435" type="line"/>
      <point x="340" y="435" type="line"/>
      <point x="213" y="-200" type="line"/>
    </contour>
  </outline>
</glyph>
<glyph name="daggerdbl" format="2">
  <advance width="533"/>
  <unicode hex="2021"/>
  <outline>
    <contour>
      <point x="129" y="-200" type="line"/>
      <point x="174" y="24" type="line"/>
      <point x="-4" y="24" type="line"/>
      <point x="12" y="105" type="line"/>
      <point x="190" y="105" type="line"/>
      <point x="256" y="435" type="line"/>
      <point x="77" y="435" type="line"/>
      <point x="93" y="516" type="line"/>
      <point x="273" y="516" type="line"/>
      <point x="318" y="740" type="line"/>
      <point x="408" y="740" type="line"/>
      <point x="363" y="516" type="line"/>
      <point x="540" y="516" type="line"/>
      <point x="524" y="435" type="line"/>
      <point x="346" y="435" type="line"/>
      <point x="280" y="105" type="line"/>
      <point x="459" y="105" type="line"/>
      <point x="442" y="24" type="line"/>
      <point x="264" y="24" type="line"/>
      <point x="219" y="-200" type="line"/>
    </contour>
  </outline>
</glyph>
<glyph name="ellipsis" format="2">
  <advance width="836"/>
  <unicode hex="2026"/>
  <outline>
    <contour>
      <point x="641" y="-12" type="qcurve" smooth="yes"/>
      <point x="609" y="-12"/>
      <point x="579" y="16"/>
      <point x="579" y="37" type="qcurve" smooth="yes"/>
      <point x="579" y="139"/>
      <point x="663" y="139" type="qcurve" smooth="yes"/>
      <point x="695" y="139"/>
      <point x="725" y="111"/>
      <point x="725" y="90" type="qcurve" smooth="yes"/>
      <point x="725" y="72"/>
      <point x="720" y="51" type="qcurve"/>
      <point x="709" y="-12"/>
    </contour>
    <contour>
      <point x="93" y="-12" type="qcurve" smooth="yes"/>
      <point x="61" y="-12"/>
      <point x="31" y="16"/>
      <point x="31" y="37" type="qcurve" smooth="yes"/>
      <point x="31" y="139"/>
      <point x="115" y="139" type="qcurve" smooth="yes"/>
      <point x="147" y="139"/>
      <point x="177" y="111"/>
      <point x="177" y="90" type="qcurve" smooth="yes"/>
      <point x="177" y="72"/>
      <point x="172" y="51" type="qcurve"/>
      <point x="161" y="-12"/>
    </contour>
    <contour>
      <point x="367" y="-12" type="qcurve" smooth="yes"/>
      <point x="335" y="-12"/>
      <point x="305" y="16"/>
      <point x="305" y="37" type="qcurve" smooth="yes"/>
      <point x="305" y="139"/>
      <point x="389" y="139" type="qcurve" smooth="yes"/>
      <point x="421" y="139"/>
      <point x="451" y="111"/>
      <point x="451" y="90" type="qcurve" smooth="yes"/>
      <point x="451" y="72"/>
      <point x="446" y="51" type="qcurve"/>
      <point x="435" y="-12"/>
    </contour>
  </outline>
</glyph>
<glyph name="won" format="2">
  <advance width="843"/>
  <unicode hex="20A9"/>
  <outline>
    <contour>
      <point x="676" y="397" type="line"/>
      <point x="577" y="397" type="line"/>
      <point x="578" y="137" type="line"/>
      <point x="582" y="137" type="line"/>
    </contour>
    <contour>
      <point x="493" y="554" type="line"/>
      <point x="489" y="554" type="line"/>
      <point x="391" y="306" type="line"/>
      <point x="492" y="306" type="line"/>
    </contour>
    <contour>
      <point x="341" y="397" type="line"/>
      <point x="242" y="397" type="line"/>
      <point x="234" y="135" type="line"/>
      <point x="238" y="135" type="line"/>
    </contour>
    <contour>
      <point x="493" y="0" type="line"/>
      <point x="493" y="239" type="line"/>
      <point x="363" y="239" type="line"/>
      <point x="269" y="0" type="line"/>
      <point x="143" y="0" type="line"/>
      <point x="143" y="235" type="line"/>
      <point x="26" y="235" type="line"/>
      <point x="41" y="311" type="line"/>
      <point x="144" y="311" type="line"/>
      <point x="144" y="393" type="line"/>
      <point x="58" y="393" type="line"/>
      <point x="73" y="469" type="line"/>
      <point x="145" y="469" type="line"/>
      <point x="145" y="698" type="line"/>
      <point x="249" y="698" type="line"/>
      <point x="243" y="465" type="line"/>
      <point x="369" y="465" type="line"/>
      <point x="463" y="698" type="line"/>
      <point x="575" y="698" type="line"/>
      <point x="578" y="465" type="line"/>
      <point x="701" y="465" type="line"/>
      <point x="789" y="698" type="line"/>
      <point x="896" y="698" type="line"/>
      <point x="805" y="469" type="line"/>
      <point x="876" y="469" type="line"/>
      <point x="861" y="393" type="line"/>
      <point x="775" y="393" type="line"/>
      <point x="741" y="311" type="line"/>
      <point x="844" y="311" type="line"/>
      <point x="829" y="235" type="line"/>
      <point x="710" y="235" type="line"/>
      <point x="618" y="0" type="line"/>
    </contour>
  </outline>
</glyph>
<glyph name="dong" format="2">
  <advance width="567"/>
  <unicode hex="20AB"/>
  <outline>
    <contour>
      <point x="261" y="221" type="qcurve" smooth="yes"/>
      <point x="306" y="221"/>
      <point x="370" y="281"/>
      <point x="376" y="314" type="qcurve" smooth="yes"/>
      <point x="393" y="399"/>
      <point x="393" y="406" type="qcurve" smooth="yes"/>
      <point x="393" y="433"/>
      <point x="372" y="451" type="qcurve" smooth="yes"/>
      <point x="346" y="473"/>
      <point x="300" y="473" type="qcurve" smooth="yes"/>
      <point x="208" y="473"/>
      <point x="189" y="373" type="qcurve"/>
      <point x="177" y="320"/>
      <point x="177" y="297" type="qcurve"/>
      <point x="179" y="221"/>
    </contour>
    <contour>
      <point x="19" y="0" type="line"/>
      <point x="35" y="82" type="line"/>
      <point x="456" y="82" type="line"/>
      <point x="440" y="0" type="line"/>
    </contour>
    <contour>
      <point x="213" y="142" type="qcurve" smooth="yes"/>
      <point x="150" y="142"/>
      <point x="75" y="219"/>
      <point x="75" y="295" type="qcurve" smooth="yes"/>
      <point x="75" y="411"/>
      <point x="192" y="553"/>
      <point x="277" y="553" type="qcurve" smooth="yes"/>
      <point x="377" y="553"/>
      <point x="402" y="473" type="qcurve"/>
      <point x="408" y="473" type="line"/>
      <point x="435" y="610" type="line"/>
      <point x="300" y="610" type="line"/>
      <point x="315" y="681" type="line"/>
      <point x="450" y="681" type="line"/>
      <point x="461" y="740" type="line"/>
      <point x="562" y="740" type="line"/>
      <point x="551" y="681" type="line"/>
      <point x="611" y="681" type="line"/>
      <point x="596" y="610" type="line"/>
      <point x="536" y="610" type="line"/>
      <point x="443" y="151" type="line"/>
      <point x="343" y="151" type="line"/>
      <point x="360" y="235" type="line"/>
      <point x="354" y="235" type="line"/>
      <point x="302" y="142"/>
    </contour>
  </outline>
</glyph>
<glyph name="kip" format="2">
  <advance width="625"/>
  <unicode hex="20AD"/>
  <outline>
    <contour>
      <point x="431" y="0" type="line"/>
      <point x="279" y="313" type="line"/>
      <point x="215" y="313" type="line"/>
      <point x="152" y="0" type="line"/>
      <point x="44" y="0" type="line"/>
      <point x="107" y="313" type="line"/>
      <point x="26" y="313" type="line"/>
      <point x="44" y="402" type="line"/>
      <point x="125" y="402" type="line"/>
      <point x="184" y="698" type="line"/>
      <point x="292" y="698" type="line"/>
      <point x="232" y="402" type="line"/>
      <point x="291" y="402" type="line"/>
      <point x="551" y="698" type="line"/>
      <point x="677" y="698" type="line"/>
      <point x="408" y="402" type="line"/>
      <point x="598" y="402" type="line"/>
      <point x="580" y="313" type="line"/>
      <point x="392" y="313" type="line"/>
      <point x="552" y="0" type="line"/>
    </contour>
  </outline>
</glyph>
<glyph name="hryvnia" format="2">
  <advance width="607"/>
  <unicode hex="20B4"/>
  <outline>
    <contour>
      <point x="269" y="-12" type="qcurve" smooth="yes"/>
      <point x="179" y="-12"/>
      <point x="83" y="84"/>
      <point x="83" y="157" type="qcurve" smooth="yes"/>
      <point x="83" y="205"/>
      <point x="104" y="241" type="qcurve"/>
      <point x="36" y="241" type="line"/>
      <point x="51" y="317" type="line"/>
      <point x="170" y="317" type="line"/>
      <point x="331" y="401" type="line"/>
      <point x="68" y="401" type="line"/>
      <point x="83" y="477" type="line"/>
      <point x="438" y="477" type="line"/>
      <point x="456" y="506"/>
      <point x="456" y="539" type="qcurve"/>
      <point x="451" y="618"/>
      <point x="361" y="618" type="qcurve" smooth="yes"/>
      <point x="291" y="618"/>
      <point x="228" y="561" type="qcurve"/>
      <point x="172" y="627" type="line"/>
      <point x="217" y="670"/>
      <point x="323" y="710"/>
      <point x="376" y="710" type="qcurve" smooth="yes"/>
      <point x="464" y="710"/>
      <point x="561" y="624"/>
      <point x="561" y="556" type="qcurve" smooth="yes"/>
      <point x="561" y="516"/>
      <point x="542" y="477" type="qcurve"/>
      <point x="612" y="477" type="line"/>
      <point x="597" y="401" type="line"/>
      <point x="478" y="401" type="line"/>
      <point x="321" y="317" type="line"/>
      <point x="581" y="317" type="line"/>
      <point x="566" y="241" type="line"/>
      <point x="209" y="241" type="line"/>
      <point x="185" y="210"/>
      <point x="185" y="172" type="qcurve" smooth="yes"/>
      <point x="185" y="128"/>
      <point x="240" y="80"/>
      <point x="287" y="80" type="qcurve" smooth="yes"/>
      <point x="322" y="80"/>
      <point x="396" y="110"/>
      <point x="440" y="150" type="qcurve"/>
      <point x="495" y="83" type="line"/>
      <point x="449" y="35"/>
      <point x="333" y="-12"/>
    </contour>
  </outline>
</glyph>
<glyph name="cedi" format="2">
  <advance width="604"/>
  <unicode hex="20B5"/>
  <outline>
    <contour>
      <point x="390" y="606" type="line"/>
      <point x="385" y="607"/>
      <point x="376" y="607" type="qcurve"/>
      <point x="228" y="596"/>
      <point x="187" y="415" type="qcurve"/>
      <point x="165" y="303" type="line" smooth="yes"/>
      <point x="159" y="276"/>
      <point x="159" y="246" type="qcurve" smooth="yes"/>
      <point x="159" y="165"/>
      <point x="213" y="121" type="qcurve"/>
    </contour>
    <contour>
      <point x="134" y="-82" type="line"/>
      <point x="175" y="30" type="line"/>
      <point x="55" y="97"/>
      <point x="55" y="277" type="qcurve" smooth="yes"/>
      <point x="55" y="450"/>
      <point x="147" y="572" type="qcurve" smooth="yes"/>
      <point x="191" y="630"/>
      <point x="316" y="696"/>
      <point x="394" y="696" type="qcurve" smooth="yes"/>
      <point x="411" y="696"/>
      <point x="417" y="695" type="qcurve"/>
      <point x="419" y="694" type="line"/>
      <point x="451" y="780" type="line"/>
      <point x="538" y="780" type="line"/>
      <point x="499" y="678" type="line"/>
      <point x="583" y="644"/>
      <point x="618" y="560" type="qcurve"/>
      <point x="533" y="510" type="line"/>
      <point x="511" y="566"/>
      <point x="463" y="591" type="qcurve"/>
      <point x="281" y="92" type="line"/>
      <point x="284" y="91"/>
      <point x="297" y="91" type="qcurve" smooth="yes"/>
      <point x="357" y="91"/>
      <point x="442" y="145"/>
      <point x="474" y="199" type="qcurve"/>
      <point x="543" y="144" type="line"/>
      <point x="498" y="72"/>
      <point x="438" y="38" type="qcurve"/>
      <point x="380" y="2"/>
      <point x="285" y="2" type="qcurve" smooth="yes"/>
      <point x="265" y="2"/>
      <point x="252" y="5" type="qcurve"/>
      <point x="221" y="-82" type="line"/>
    </contour>
  </outline>
</glyph>
<glyph name="turkishlira" format="2">
  <advance width="622"/>
  <unicode hex="20BA"/>
  <outline>
    <contour>
      <point x="83" y="0" type="line"/>
      <point x="129" y="230" type="line"/>
      <point x="31" y="186" type="line"/>
      <point x="47" y="266" type="line"/>
      <point x="145" y="310" type="line"/>
      <point x="161" y="391" type="line"/>
      <point x="63" y="347" type="line"/>
      <point x="79" y="427" type="line"/>
      <point x="177" y="471" type="line"/>
      <point x="223" y="698" type="line"/>
      <point x="332" y="698" type="line"/>
      <point x="297" y="524" type="line"/>
      <point x="497" y="616" type="line"/>
      <point x="481" y="536" type="line"/>
      <point x="281" y="445" type="line"/>
      <point x="265" y="364" type="line"/>
      <point x="465" y="455" type="line"/>
      <point x="449" y="376" type="line"/>
      <point x="249" y="284" type="line"/>
      <point x="211" y="92" type="line"/>
      <point x="285" y="92" type="line" smooth="yes"/>
      <point x="441" y="92"/>
      <point x="486" y="305" type="qcurve"/>
      <point x="591" y="305" type="line"/>
      <point x="566" y="166"/>
      <point x="410" y="0"/>
      <point x="282" y="0" type="qcurve" smooth="yes"/>
    </contour>
  </outline>
</glyph>
<glyph name="ruble" format="2">
  <advance width="630"/>
  <unicode hex="20BD"/>
  <outline>
    <contour>
      <point x="403" y="381" type="line" smooth="yes"/>
      <point x="492" y="381"/>
      <point x="512" y="470" type="qcurve"/>
      <point x="512" y="472"/>
      <point x="513" y="475" type="qcurve"/>
      <point x="513" y="476" type="line"/>
      <point x="514" y="482"/>
      <point x="515" y="487" type="qcurve"/>
      <point x="516" y="488" type="line"/>
      <point x="516" y="492" type="line"/>
      <point x="518" y="500"/>
      <point x="519" y="506" type="qcurve"/>
      <point x="519" y="507" type="line"/>
      <point x="520" y="508"/>
      <point x="520" y="509" type="qcurve" smooth="yes"/>
      <point x="520" y="510" type="line" smooth="yes"/>
      <point x="520" y="511"/>
      <point x="521" y="513" type="qcurve"/>
      <point x="523" y="525"/>
      <point x="523" y="535" type="qcurve" smooth="yes"/>
      <point x="523" y="604"/>
      <point x="439" y="604" type="qcurve" smooth="yes"/>
      <point x="284" y="604" type="line"/>
      <point x="239" y="381" type="line"/>
    </contour>
    <contour>
      <point x="55" y="0" type="line"/>
      <point x="79" y="121" type="line"/>
      <point x="-2" y="121" type="line"/>
      <point x="15" y="204" type="line"/>
      <point x="96" y="204" type="line"/>
      <point x="115" y="298" type="line"/>
      <point x="34" y="298" type="line"/>
      <point x="50" y="381" type="line"/>
      <point x="131" y="381" type="line"/>
      <point x="195" y="698" type="line"/>
      <point x="450" y="698" type="line" smooth="yes"/>
      <point x="544" y="698"/>
      <point x="634" y="605"/>
      <point x="634" y="530" type="qcurve" smooth="yes"/>
      <point x="634" y="440"/>
      <point x="506" y="298"/>
      <point x="396" y="298" type="qcurve" smooth="yes"/>
      <point x="223" y="298" type="line"/>
      <point x="204" y="204" type="line"/>
      <point x="444" y="204" type="line"/>
      <point x="427" y="121" type="line"/>
      <point x="187" y="121" type="line"/>
      <point x="163" y="0" type="line"/>
    </contour>
  </outline>
</glyph>
<glyph name="oneseventh" format="2">
  <advance width="840"/>
  <unicode hex="2150"/>
  <outline>
    <contour>
      <point x="235" y="329" type="line"/>
      <point x="161" y="329" type="line"/>
      <point x="220" y="627" type="line"/>
      <point x="131" y="581" type="line"/>
      <point x="146" y="656" type="line"/>
      <point x="230" y="698" type="line"/>
      <point x="309" y="698" type="line"/>
    </contour>
    <contour>
      <point x="142" y="0" type="line"/>
      <point x="51" y="0" type="line"/>
      <point x="681" y="698" type="line"/>
      <point x="771" y="698" type="line"/>
    </contour>
    <contour>
      <point x="625" y="0" type="line"/>
      <point x="541" y="0" type="line"/>
      <point x="738" y="308" type="line"/>
      <point x="538" y="308" type="line"/>
      <point x="550" y="369" type="line"/>
      <point x="828" y="369" type="line"/>
      <point x="815" y="303" type="line"/>
    </contour>
  </outline>
</glyph>
<glyph name="fiveeighths" format="2">
  <advance width="877"/>
  <unicode hex="215D"/>
  <outline>
    <contour>
      <point x="655" y="52" type="qcurve" smooth="yes"/>
      <point x="716" y="52"/>
      <point x="727" y="104" type="qcurve"/>
      <point x="729" y="115"/>
      <point x="729" y="122" type="qcurve"/>
      <point x="726" y="162"/>
      <point x="673" y="162" type="qcurve" smooth="yes"/>
      <point x="637" y="162"/>
      <point x="621" y="147" type="qcurve" smooth="yes"/>
      <point x="599" y="126"/>
      <point x="599" y="92" type="qcurve"/>
      <point x="603" y="52"/>
    </contour>
    <contour>
      <point x="688" y="216" type="qcurve" smooth="yes"/>
      <point x="757" y="216"/>
      <point x="757" y="280" type="qcurve"/>
      <point x="753" y="318"/>
      <point x="706" y="318" type="qcurve" smooth="yes"/>
      <point x="637" y="318"/>
      <point x="637" y="254" type="qcurve"/>
      <point x="642" y="216"/>
    </contour>
    <contour>
      <point x="648" y="-6" type="qcurve" smooth="yes"/>
      <point x="585" y="-6"/>
      <point x="521" y="45"/>
      <point x="521" y="86" type="qcurve" smooth="yes"/>
      <point x="521" y="128"/>
      <point x="571" y="181"/>
      <point x="614" y="191" type="qcurve"/>
      <point x="615" y="195" type="line"/>
      <point x="567" y="214"/>
      <point x="567" y="266" type="qcurve" smooth="yes"/>
      <point x="567" y="308"/>
      <point x="642" y="375"/>
      <point x="714" y="375" type="qcurve" smooth="yes"/>
      <point x="771" y="375"/>
      <point x="830" y="327"/>
      <point x="830" y="289" type="qcurve" smooth="yes"/>
      <point x="830" y="221"/>
      <point x="751" y="196" type="qcurve"/>
      <point x="750" y="191" type="line"/>
      <point x="778" y="182"/>
      <point x="807" y="147"/>
      <point x="807" y="118" type="qcurve" smooth="yes"/>
      <point x="807" y="69"/>
      <point x="722" y="-6"/>
    </contour>
    <contour>
      <point x="193" y="323" type="qcurve" smooth="yes"/>
      <point x="94" y="323"/>
      <point x="61" y="395" type="qcurve"/>
      <point x="120" y="432" type="line"/>
      <point x="129" y="409"/>
      <point x="163" y="384"/>
      <point x="194" y="384" type="qcurve" smooth="yes"/>
      <point x="257" y="384"/>
      <point x="268" y="443" type="qcurve" smooth="yes"/>
      <point x="270" y="454"/>
      <point x="270" y="464" type="qcurve"/>
      <point x="267" y="509"/>
      <point x="217" y="509" type="qcurve" smooth="yes"/>
      <point x="180" y="509"/>
      <point x="152" y="483" type="qcurve"/>
      <point x="88" y="491" type="line"/>
      <point x="147" y="698" type="line"/>
      <point x="378" y="698" type="line"/>
      <point x="365" y="635" type="line"/>
      <point x="190" y="635" type="line"/>
      <point x="155" y="513" type="line"/>
      <point x="159" y="513" type="line"/>
      <point x="192" y="569"/>
      <point x="256" y="569" type="qcurve" smooth="yes"/>
      <point x="298" y="569"/>
      <point x="352" y="516"/>
      <point x="352" y="468" type="qcurve" smooth="yes"/>
      <point x="352" y="411"/>
      <point x="315" y="370" type="qcurve" smooth="yes"/>
      <point x="272" y="323"/>
    </contour>
    <contour>
      <point x="90" y="0" type="line"/>
      <point x="720" y="698" type="line"/>
      <point x="810" y="698" type="line"/>
      <point x="181" y="0" type="line"/>
    </contour>
  </outline>
</glyph>
<glyph name="arrowleftdowntip" format="2">
  <advance width="854"/>
  <unicode hex="21B2"/>
  <outline>
    <contour>
      <point x="153" y="221" type="line"/>
      <point x="373" y="441" type="line"/>
      <point x="435" y="380" type="line"/>
      <point x="360" y="305" type="line"/>
      <point x="313" y="264" type="line"/>
      <point x="314" y="261" type="line"/>
      <point x="403" y="266" type="line"/>
      <point x="574" y="266" type="line"/>
      <point x="574" y="698" type="line"/>
      <point x="665" y="698" type="line"/>
      <point x="665" y="175" type="line"/>
      <point x="403" y="175" type="line"/>
      <point x="314" y="180" type="line"/>
      <point x="313" y="177" type="line"/>
      <point x="360" y="137" type="line"/>
      <point x="435" y="62" type="line"/>
      <point x="373" y="0" type="line"/>
    </contour>
  </outline>
</glyph>
<glyph name="partialdiff" format="2">
  <advance width="566"/>
  <unicode hex="2202"/>
  <outline>
    <contour>
      <point x="251" y="75" type="qcurve" smooth="yes"/>
      <point x="305" y="75"/>
      <point x="377" y="147"/>
      <point x="389" y="208" type="qcurve" smooth="yes"/>
      <point x="395" y="238"/>
      <point x="406" y="298"/>
      <point x="406" y="317" type="qcurve" smooth="yes"/>
      <point x="406" y="365"/>
      <point x="349" y="418"/>
      <point x="300" y="418" type="qcurve" smooth="yes"/>
      <point x="246" y="418"/>
      <point x="174" y="345"/>
      <point x="162" y="284" type="qcurve" smooth="yes"/>
      <point x="151" y="223" type="line"/>
      <point x="149" y="207" type="line"/>
      <point x="145" y="188"/>
      <point x="145" y="175" type="qcurve" smooth="yes"/>
      <point x="145" y="127"/>
      <point x="202" y="75"/>
    </contour>
    <contour>
      <point x="240" y="-12" type="qcurve" smooth="yes"/>
      <point x="144" y="-12"/>
      <point x="41" y="104"/>
      <point x="41" y="201" type="qcurve" smooth="yes"/>
      <point x="41" y="326"/>
      <point x="178" y="504"/>
      <point x="280" y="504" type="qcurve" smooth="yes"/>
      <point x="334" y="504"/>
      <point x="403" y="451"/>
      <point x="418" y="405" type="qcurve"/>
      <point x="424" y="406" type="line"/>
      <point x="408" y="504"/>
      <point x="276" y="656"/>
      <point x="205" y="698" type="qcurve"/>
      <point x="351" y="698" type="line"/>
      <point x="420" y="646"/>
      <point x="470" y="560" type="qcurve"/>
      <point x="521" y="467"/>
      <point x="521" y="352" type="qcurve" smooth="yes"/>
      <point x="521" y="192"/>
      <point x="448" y="90" type="qcurve"/>
      <point x="412" y="42"/>
      <point x="307" y="-12"/>
    </contour>
  </outline>
</glyph>
<glyph name="summation" format="2">
  <advance width="519"/>
  <unicode hex="2211"/>
  <outline>
    <contour>
      <point x="-53" y="-200" type="line"/>
      <point x="-32" y="-97" type="line"/>
      <point x="270" y="251" type="line"/>
      <point x="271" y="255" type="line"/>
      <point x="105" y="595" type="line"/>
      <point x="126" y="698" type="line"/>
      <point x="574" y="698" type="line"/>
      <point x="555" y="601" type="line"/>
      <point x="215" y="601" type="line"/>
      <point x="374" y="274" type="line"/>
      <point x="361" y="209" type="line"/>
      <point x="87" y="-103" type="line"/>
      <point x="416" y="-103" type="line"/>
      <point x="397" y="-200" type="line"/>
    </contour>
  </outline>
</glyph>
<glyph name="rightTipDownArrow" format="2">
  <advance width="854"/>
  <unicode hex="2B0E"/>
  <outline>
    <contour>
      <point x="334" y="310" type="line"/>
      <point x="396" y="371" type="line"/>
      <point x="471" y="296" type="line"/>
      <point x="511" y="249" type="line"/>
      <point x="515" y="250" type="line"/>
      <point x="510" y="339" type="line"/>
      <point x="510" y="510" type="line"/>
      <point x="78" y="510" type="line"/>
      <point x="78" y="601" type="line"/>
      <point x="601" y="601" type="line"/>
      <point x="601" y="339" type="line"/>
      <point x="596" y="250" type="line"/>
      <point x="599" y="249" type="line"/>
      <point x="639" y="296" type="line"/>
      <point x="714" y="371" type="line"/>
      <point x="776" y="310" type="line"/>
      <point x="555" y="89" type="line"/>
    </contour>
  </outline>
</glyph>
<glyph name="uniF6D7" format="2">
  <unicode hex="F6D7"/>
  <outline>
    <contour>
      <point x="112" y="593" type="qcurve" smooth="yes"/>
      <point x="60" y="593"/>
      <point x="60" y="634" type="qcurve" smooth="yes"/>
      <point x="60" y="640"/>
      <point x="62" y="649"/>
      <point x="63" y="655" type="qcurve"/>
      <point x="63" y="658" type="line"/>
      <point x="64" y="659"/>
      <point x="64" y="660" type="qcurve" smooth="yes"/>
      <point x="64" y="663" type="line" smooth="yes"/>
      <point x="64" y="664"/>
      <point x="65" y="665" type="qcurve"/>
      <point x="65" y="667" type="line"/>
      <point x="73" y="716"/>
      <point x="133" y="716" type="qcurve" smooth="yes"/>
      <point x="185" y="716"/>
      <point x="185" y="675" type="qcurve" smooth="yes"/>
      <point x="185" y="671"/>
      <point x="183" y="661"/>
      <point x="181" y="650"/>
      <point x="180" y="642" type="qcurve"/>
      <point x="172" y="593"/>
    </contour>
    <contour>
      <point x="-15" y="744" type="line"/>
      <point x="90" y="924" type="line"/>
      <point x="173" y="880" type="line"/>
      <point x="44" y="713" type="line"/>
    </contour>
    <contour>
      <point x="-83" y="593" type="qcurve" smooth="yes"/>
      <point x="-135" y="593"/>
      <point x="-135" y="634" type="qcurve" smooth="yes"/>
      <point x="-135" y="640"/>
      <point x="-133" y="649"/>
      <point x="-132" y="655" type="qcurve"/>
      <point x="-132" y="657"/>
      <point x="-131" y="660" type="qcurve"/>
      <point x="-131" y="664"/>
      <point x="-130" y="667" type="qcurve"/>
      <point x="-122" y="716"/>
      <point x="-62" y="716" type="qcurve" smooth="yes"/>
      <point x="-10" y="716"/>
      <point x="-10" y="675" type="qcurve" smooth="yes"/>
      <point x="-10" y="671"/>
      <point x="-12" y="661"/>
      <point x="-14" y="650"/>
      <point x="-15" y="642" type="qcurve"/>
      <point x="-23" y="593"/>
    </contour>
  </outline>
</glyph>
<glyph name="fl" format="2">
  <advance width="588"/>
  <unicode hex="FB02"/>
  <outline>
    <contour>
      <point x="438" y="0" type="line" smooth="yes"/>
      <point x="400" y="0"/>
      <point x="360" y="39"/>
      <point x="360" y="70" type="qcurve" smooth="yes"/>
      <point x="360" y="79"/>
      <point x="475" y="653" type="qcurve"/>
      <point x="290" y="653" type="line"/>
      <point x="263" y="520" type="line"/>
      <point x="364" y="520" type="line"/>
      <point x="347" y="433" type="line"/>
      <point x="246" y="433" type="line"/>
      <point x="144" y="-71" type="line" smooth="yes"/>
      <point x="132" y="-134"/>
      <point x="64" y="-200"/>
      <point x="-2" y="-200" type="qcurve" smooth="yes"/>
      <point x="-80" y="-200" type="line"/>
      <point x="-63" y="-113" type="line"/>
      <point x="32" y="-113" type="line"/>
      <point x="142" y="433" type="line"/>
      <point x="63" y="433" type="line"/>
      <point x="81" y="520" type="line"/>
      <point x="159" y="520" type="line"/>
      <point x="177" y="611" type="line"/>
      <point x="188" y="674"/>
      <point x="261" y="740"/>
      <point x="331" y="740" type="qcurve" smooth="yes"/>
      <point x="596" y="740" type="line"/>
      <point x="465" y="87" type="line"/>
      <point x="536" y="87" type="line"/>
      <point x="519" y="0" type="line"/>
    </contour>
  </outline>
</glyph>
<glyph name="nine.subs" format="2">
  <advance width="349"/>
  <outline>
    <contour>
      <point x="218" y="661" type="qcurve" smooth="yes"/>
      <point x="278" y="661"/>
      <point x="290" y="721" type="qcurve" smooth="yes"/>
      <point x="292" y="731"/>
      <point x="292" y="741" type="qcurve"/>
      <point x="291" y="788"/>
      <point x="237" y="788" type="qcurve" smooth="yes"/>
      <point x="177" y="788"/>
      <point x="165" y="728" type="qcurve" smooth="yes"/>
      <point x="163" y="718"/>
      <point x="163" y="708" type="qcurve"/>
      <point x="164" y="661"/>
    </contour>
    <contour>
      <point x="74" y="470" type="line"/>
      <point x="153" y="514"/>
      <point x="256" y="601"/>
      <point x="276" y="657" type="qcurve"/>
      <point x="272" y="659" type="line"/>
      <point x="258" y="637"/>
      <point x="215" y="604"/>
      <point x="180" y="604" type="qcurve" smooth="yes"/>
      <point x="135" y="604"/>
      <point x="84" y="659"/>
      <point x="84" y="702" type="qcurve" smooth="yes"/>
      <point x="84" y="762"/>
      <point x="169" y="845"/>
      <point x="241" y="845" type="qcurve" smooth="yes"/>
      <point x="304" y="845"/>
      <point x="368" y="781"/>
      <point x="368" y="725" type="qcurve" smooth="yes"/>
      <point x="368" y="645"/>
      <point x="310" y="573" type="qcurve"/>
      <point x="254" y="507"/>
      <point x="185" y="470" type="qcurve"/>
    </contour>
  </outline>
</glyph>
<glyph name="one.subs" format="2">
  <advance width="311"/>
  <outline>
    <contour>
      <point x="235" y="470" type="line"/>
      <point x="161" y="470" type="line"/>
      <point x="220" y="768" type="line"/>
      <point x="131" y="722" type="line"/>
      <point x="146" y="797" type="line"/>
      <point x="230" y="839" type="line"/>
      <point x="309" y="839" type="line"/>
    </contour>
  </outline>
</glyph>
<glyph name="seven.subs" format="2">
  <advance width="336"/>
  <outline>
    <contour>
      <point x="182" y="470" type="line"/>
      <point x="98" y="470" type="line"/>
      <point x="295" y="778" type="line"/>
      <point x="95" y="778" type="line"/>
      <point x="107" y="839" type="line"/>
      <point x="385" y="839" type="line"/>
      <point x="372" y="773" type="line"/>
    </contour>
  </outline>
</glyph>
<glyph name="six.subs" format="2">
  <advance width="351"/>
  <outline>
    <contour>
      <point x="207" y="522" type="qcurve" smooth="yes"/>
      <point x="267" y="522"/>
      <point x="279" y="582" type="qcurve" smooth="yes"/>
      <point x="281" y="592"/>
      <point x="281" y="602" type="qcurve"/>
      <point x="280" y="649"/>
      <point x="226" y="649" type="qcurve" smooth="yes"/>
      <point x="166" y="649"/>
      <point x="154" y="589" type="qcurve" smooth="yes"/>
      <point x="152" y="579"/>
      <point x="152" y="569" type="qcurve"/>
      <point x="153" y="522"/>
    </contour>
    <contour>
      <point x="202" y="464" type="qcurve" smooth="yes"/>
      <point x="140" y="464"/>
      <point x="75" y="529"/>
      <point x="75" y="585" type="qcurve" smooth="yes"/>
      <point x="75" y="663"/>
      <point x="134" y="736" type="qcurve" smooth="yes"/>
      <point x="190" y="803"/>
      <point x="259" y="839" type="qcurve"/>
      <point x="370" y="839" type="line"/>
      <point x="290" y="796"/>
      <point x="188" y="709"/>
      <point x="167" y="653" type="qcurve"/>
      <point x="172" y="651" type="line"/>
      <point x="206" y="706"/>
      <point x="263" y="706" type="qcurve" smooth="yes"/>
      <point x="308" y="706"/>
      <point x="360" y="651"/>
      <point x="360" y="607" type="qcurve" smooth="yes"/>
      <point x="360" y="549"/>
      <point x="274" y="464"/>
    </contour>
  </outline>
</glyph>
<glyph name="six.sups" format="2">
  <advance width="351"/>
  <outline>
    <contour>
      <point x="207" y="-336" type="qcurve" smooth="yes"/>
      <point x="267" y="-336"/>
      <point x="279" y="-276" type="qcurve" smooth="yes"/>
      <point x="281" y="-266"/>
      <point x="281" y="-256" type="qcurve"/>
      <point x="280" y="-209"/>
      <point x="226" y="-209" type="qcurve" smooth="yes"/>
      <point x="166" y="-209"/>
      <point x="154" y="-269" type="qcurve" smooth="yes"/>
      <point x="152" y="-279"/>
      <point x="152" y="-289" type="qcurve"/>
      <point x="153" y="-336"/>
    </contour>
    <contour>
      <point x="202" y="-394" type="qcurve" smooth="yes"/>
      <point x="140" y="-394"/>
      <point x="75" y="-329"/>
      <point x="75" y="-273" type="qcurve" smooth="yes"/>
      <point x="75" y="-195"/>
      <point x="134" y="-122" type="qcurve" smooth="yes"/>
      <point x="190" y="-55"/>
      <point x="259" y="-19" type="qcurve"/>
      <point x="370" y="-19" type="line"/>
      <point x="290" y="-62"/>
      <point x="188" y="-149"/>
      <point x="167" y="-205" type="qcurve"/>
      <point x="172" y="-207" type="line"/>
      <point x="206" y="-152"/>
      <point x="263" y="-152" type="qcurve" smooth="yes"/>
      <point x="308" y="-152"/>
      <point x="360" y="-207"/>
      <point x="360" y="-251" type="qcurve" smooth="yes"/>
      <point x="360" y="-309"/>
      <point x="274" y="-394"/>
    </contour>
  </outline>
</glyph>
<glyph name="three.subs" format="2">
  <advance width="336"/>
  <outline>
    <contour>
      <point x="174" y="464" type="qcurve" smooth="yes"/>
      <point x="116" y="464"/>
      <point x="52" y="506"/>
      <point x="40" y="535" type="qcurve"/>
      <point x="95" y="574" type="line"/>
      <point x="116" y="525"/>
      <point x="175" y="525" type="qcurve" smooth="yes"/>
      <point x="237" y="525"/>
      <point x="247" y="577" type="qcurve" smooth="yes"/>
      <point x="249" y="589" type="line"/>
      <point x="249" y="630"/>
      <point x="190" y="630" type="qcurve" smooth="yes"/>
      <point x="148" y="630" type="line"/>
      <point x="160" y="691" type="line"/>
      <point x="202" y="691" type="line" smooth="yes"/>
      <point x="267" y="691"/>
      <point x="273" y="734" type="qcurve" smooth="yes"/>
      <point x="275" y="749" type="line"/>
      <point x="275" y="763"/>
      <point x="249" y="785"/>
      <point x="226" y="785" type="qcurve" smooth="yes"/>
      <point x="177" y="785"/>
      <point x="140" y="739" type="qcurve"/>
      <point x="97" y="784" type="line"/>
      <point x="121" y="812"/>
      <point x="186" y="845"/>
      <point x="234" y="845" type="qcurve" smooth="yes"/>
      <point x="291" y="845"/>
      <point x="353" y="794"/>
      <point x="353" y="755" type="qcurve" smooth="yes"/>
      <point x="353" y="718"/>
      <point x="305" y="670"/>
      <point x="265" y="661" type="qcurve"/>
      <point x="265" y="659" type="line"/>
      <point x="327" y="647"/>
      <point x="327" y="585" type="qcurve" smooth="yes"/>
      <point x="327" y="533"/>
      <point x="246" y="464"/>
    </contour>
  </outline>
</glyph>
<glyph name="two.sups" format="2">
  <advance width="339"/>
  <outline>
    <contour>
      <point x="42" y="-388" type="line"/>
      <point x="56" y="-317" type="line"/>
      <point x="196" y="-221" type="line" smooth="yes"/>
      <point x="230" y="-197"/>
      <point x="268" y="-160"/>
      <point x="273" y="-135" type="qcurve"/>
      <point x="275" y="-119" type="line"/>
      <point x="275" y="-99"/>
      <point x="246" y="-78"/>
      <point x="225" y="-78" type="qcurve" smooth="yes"/>
      <point x="175" y="-78"/>
      <point x="153" y="-132" type="qcurve"/>
      <point x="88" y="-106" type="line"/>
      <point x="130" y="-13"/>
      <point x="231" y="-13" type="qcurve" smooth="yes"/>
      <point x="284" y="-13"/>
      <point x="357" y="-65"/>
      <point x="357" y="-114" type="qcurve" smooth="yes"/>
      <point x="357" y="-163"/>
      <point x="317" y="-204" type="qcurve" smooth="yes"/>
      <point x="279" y="-241"/>
      <point x="228" y="-270" type="qcurve"/>
      <point x="144" y="-326" type="line"/>
      <point x="324" y="-326" type="line"/>
      <point x="312" y="-388" type="line"/>
    </contour>
  </outline>
</glyph>
<glyph name="zero.sups" format="2">
  <advance width="358"/>
  <outline>
    <contour>
      <point x="206" y="-331" type="qcurve" smooth="yes"/>
      <point x="241" y="-331"/>
      <point x="278" y="-281"/>
      <point x="286" y="-239" type="qcurve" smooth="yes"/>
      <point x="301" y="-163" type="line"/>
      <point x="305" y="-146"/>
      <point x="305" y="-130" type="qcurve" smooth="yes"/>
      <point x="305" y="-74"/>
      <point x="251" y="-74" type="qcurve" smooth="yes"/>
      <point x="216" y="-74"/>
      <point x="179" y="-123"/>
      <point x="171" y="-166" type="qcurve" smooth="yes"/>
      <point x="156" y="-242" type="line"/>
      <point x="152" y="-258"/>
      <point x="152" y="-275" type="qcurve" smooth="yes"/>
      <point x="152" y="-331"/>
    </contour>
    <contour>
      <point x="201" y="-393" type="qcurve" smooth="yes"/>
      <point x="138" y="-393"/>
      <point x="105" y="-351" type="qcurve"/>
      <point x="77" y="-310"/>
      <point x="77" y="-256" type="qcurve" smooth="yes"/>
      <point x="77" y="-158"/>
      <point x="124" y="-85" type="qcurve"/>
      <point x="173" y="-13"/>
      <point x="256" y="-13" type="qcurve" smooth="yes"/>
      <point x="319" y="-13"/>
      <point x="352" y="-54" type="qcurve" smooth="yes"/>
      <point x="380" y="-90"/>
      <point x="380" y="-150" type="qcurve" smooth="yes"/>
      <point x="380" y="-247"/>
      <point x="287" y="-393"/>
    </contour>
  </outline>
</glyph>
